<?xml version="1.0" standalone="no"?>
<!DOCTYPE svg PUBLIC "-//W3C//DTD SVG 20010904//EN"
 "http://www.w3.org/TR/2001/REC-SVG-20010904/DTD/svg10.dtd">
<svg version="1.0" xmlns="http://www.w3.org/2000/svg"
 width="1521.000000pt" height="430.000000pt" viewBox="0 0 1521.000000 430.000000"
 preserveAspectRatio="xMidYMid meet">
<metadata>
Created by potrace 1.16, written by Peter Selinger 2001-2019
</metadata>
<g transform="translate(0.000000,430.000000) scale(0.100000,-0.100000)"
fill="#000000" stroke="none">
<path d="M6376 4044 c-35 -34 -13 -134 29 -134 26 0 45 31 45 75 0 44 -19 75
-45 75 -7 0 -21 -7 -29 -16z m49 -25 c10 -30 -3 -89 -20 -89 -17 0 -28 49 -19
84 7 31 30 34 39 5z"/>
<path d="M6497 4042 c-22 -24 -22 -95 -1 -116 32 -33 74 -13 74 35 0 31 -23
54 -45 45 -10 -4 -15 1 -15 14 0 11 7 20 15 20 8 0 15 -4 15 -10 0 -5 7 -7 15
-4 12 5 13 10 4 20 -16 19 -43 17 -62 -4z m48 -73 c8 -23 -7 -45 -24 -35 -6 4
-11 18 -11 32 0 30 26 32 35 3z"/>
<path d="M811 4036 c-21 -26 -25 -83 -7 -111 31 -48 86 -16 86 50 0 58 -50 96
-79 61z m44 -62 c0 -37 -4 -49 -15 -49 -16 0 -27 63 -16 92 12 31 31 6 31 -43z"/>
<path d="M942 4027 c-27 -29 -28 -40 -2 -32 18 6 20 2 20 -44 0 -28 5 -51 10
-51 6 0 10 32 10 75 0 41 -4 75 -8 75 -5 0 -18 -10 -30 -23z"/>
<path d="M2236 4028 c-22 -31 -20 -91 2 -111 41 -37 75 -10 75 58 0 71 -44
101 -77 53z m49 -54 c0 -37 -4 -49 -15 -49 -16 0 -27 63 -16 92 12 31 31 6 31
-43z"/>
<path d="M2350 4035 c-17 -20 -5 -32 15 -15 16 13 45 7 45 -9 0 -5 -18 -31
-40 -56 -22 -25 -40 -48 -40 -51 0 -2 23 -4 50 -4 28 0 50 5 50 10 0 6 -12 10
-26 10 l-26 0 26 31 c28 33 33 68 14 87 -17 17 -53 15 -68 -3z"/>
<path d="M3202 4038 c-16 -16 -16 -110 0 -126 33 -33 78 4 78 65 0 58 -46 93
-78 61z m48 -64 c0 -47 -3 -55 -17 -52 -13 2 -19 15 -21 42 -4 47 3 66 23 66
12 0 15 -12 15 -56z"/>
<path d="M3323 4043 c-15 -5 -18 -33 -4 -33 6 0 13 5 16 10 3 6 10 10 16 10
14 0 11 -38 -3 -44 -9 -3 -8 -8 5 -16 19 -12 23 -35 7 -45 -6 -4 -17 -1 -25 5
-23 19 -41 7 -21 -13 23 -23 49 -21 72 4 14 16 16 24 7 38 -7 10 -9 28 -6 40
9 37 -25 60 -64 44z"/>
<path d="M4272 4038 c-16 -16 -16 -110 0 -126 33 -33 78 4 78 65 0 58 -46 93
-78 61z m48 -64 c0 -47 -3 -55 -17 -52 -13 2 -19 15 -21 42 -4 47 3 66 23 66
12 0 15 -12 15 -56z"/>
<path d="M4401 4002 c-39 -61 -39 -72 -1 -72 20 0 30 -5 30 -15 0 -8 5 -15 10
-15 6 0 10 6 10 14 0 8 6 17 13 20 10 5 10 7 0 12 -8 3 -13 25 -13 55 0 27 -4
49 -9 49 -5 0 -23 -22 -40 -48z m29 -32 c0 -13 -7 -20 -20 -20 -18 0 -19 2 -8
20 7 11 16 20 20 20 5 0 8 -9 8 -20z"/>
<path d="M5246 4028 c-22 -31 -20 -91 2 -111 41 -37 75 -10 75 58 0 71 -44
101 -77 53z m49 -54 c0 -37 -4 -49 -15 -49 -16 0 -27 63 -16 92 12 31 31 6 31
-43z"/>
<path d="M5366 4038 c-3 -7 -7 -25 -10 -41 -6 -26 -5 -27 26 -25 28 3 34 -1
36 -20 4 -24 -29 -45 -36 -24 -4 13 -32 17 -32 4 0 -15 24 -32 47 -32 13 0 29
10 39 25 15 23 15 27 0 50 -9 14 -26 25 -37 25 -30 0 -18 24 14 28 15 2 27 8
27 13 0 14 -70 11 -74 -3z"/>
<path d="M7601 4036 c-21 -26 -25 -83 -7 -111 31 -48 86 -16 86 50 0 58 -50
96 -79 61z m44 -62 c0 -37 -4 -49 -15 -49 -16 0 -27 63 -16 92 12 31 31 6 31
-43z"/>
<path d="M7700 4040 c0 -5 14 -10 30 -10 17 0 30 -2 30 -4 0 -2 -9 -23 -20
-47 -24 -53 -25 -79 -5 -79 9 0 15 9 15 24 0 12 11 44 25 70 14 26 25 49 25
52 0 2 -22 4 -50 4 -27 0 -50 -4 -50 -10z"/>
<path d="M8561 4036 c-21 -26 -25 -83 -7 -111 31 -48 86 -16 86 50 0 58 -50
96 -79 61z m44 -62 c0 -37 -4 -49 -15 -49 -16 0 -27 63 -16 92 12 31 31 6 31
-43z"/>
<path d="M8676 4034 c-19 -18 -20 -26 -5 -41 8 -8 7 -16 -2 -30 -16 -27 -6
-51 27 -59 35 -9 69 27 54 55 -5 10 -6 28 -3 39 11 44 -39 69 -71 36z m49 -24
c0 -8 -8 -16 -17 -18 -13 -2 -18 3 -18 18 0 15 5 20 18 18 9 -2 17 -10 17 -18z
m0 -65 c0 -11 -8 -21 -17 -23 -14 -3 -18 3 -18 23 0 20 4 26 18 23 9 -2 17
-12 17 -23z"/>
<path d="M9796 4028 c-22 -31 -20 -91 2 -111 41 -37 75 -10 75 58 0 71 -44
101 -77 53z m49 -54 c0 -37 -4 -49 -15 -49 -16 0 -27 63 -16 92 12 31 31 6 31
-43z"/>
<path d="M9912 4038 c-17 -17 -15 -63 3 -78 8 -6 23 -9 34 -5 16 5 18 2 14
-15 -5 -20 -33 -29 -33 -10 0 6 -7 10 -15 10 -18 0 -19 -12 -3 -28 33 -33 78
4 78 66 0 59 -44 94 -78 60z m46 -41 c2 -19 -1 -27 -13 -27 -19 0 -30 24 -21
46 9 23 31 11 34 -19z"/>
<path d="M10743 4025 c-13 -12 -23 -28 -23 -36 0 -10 3 -10 12 -1 22 22 28 13
28 -38 0 -38 4 -50 15 -50 12 0 15 15 15 75 0 82 -8 90 -47 50z"/>
<path d="M10846 4028 c-22 -31 -20 -91 2 -111 41 -37 75 -10 75 58 0 71 -44
101 -77 53z m49 -54 c0 -37 -4 -49 -15 -49 -16 0 -27 63 -16 92 12 31 31 6 31
-43z"/>
<path d="M11893 4025 c-13 -12 -23 -28 -23 -36 0 -10 3 -10 12 -1 22 22 28 13
28 -38 0 -38 4 -50 15 -50 12 0 15 15 15 75 0 82 -8 90 -47 50z"/>
<path d="M12002 4027 c-27 -29 -28 -40 -2 -32 18 6 20 2 20 -44 0 -28 5 -51
10 -51 6 0 10 32 10 75 0 41 -4 75 -8 75 -5 0 -18 -10 -30 -23z"/>
<path d="M12973 4025 c-13 -12 -23 -28 -23 -36 0 -10 3 -10 12 -1 22 22 28 13
28 -38 0 -38 4 -50 15 -50 12 0 15 15 15 75 0 82 -8 90 -47 50z"/>
<path d="M13074 4033 c-13 -13 -14 -18 -3 -22 7 -2 15 1 17 8 6 17 42 13 42
-5 0 -9 -16 -34 -35 -55 -19 -22 -35 -44 -35 -49 0 -6 23 -10 50 -10 28 0 50
5 50 10 0 6 -14 10 -31 10 l-31 0 31 35 c35 40 38 57 15 79 -20 21 -48 20 -70
-1z"/>
<path d="M14312 4027 c-27 -29 -28 -40 -2 -32 18 6 20 2 20 -44 0 -28 5 -51
10 -51 6 0 10 32 10 75 0 41 -4 75 -8 75 -5 0 -18 -10 -30 -23z"/>
<path d="M14410 4035 c-18 -21 -6 -29 19 -14 26 17 39 4 22 -23 -11 -18 -11
-22 3 -30 9 -5 16 -16 16 -24 0 -20 -27 -29 -45 -14 -22 18 -32 3 -12 -17 37
-37 101 22 67 62 -7 9 -8 15 0 20 14 9 13 21 -6 39 -20 20 -48 20 -64 1z"/>
<path d="M12691 3668 c1 -29 4 -41 6 -26 3 20 11 28 31 31 l27 4 -27 2 c-40 2
-36 29 5 34 31 4 31 4 -5 5 l-38 2 1 -52z"/>
<path d="M13061 3674 c-1 -49 0 -51 27 -50 24 1 27 5 27 36 0 28 -4 35 -20 35
-11 0 -23 7 -27 15 -4 8 -7 -8 -7 -36z m44 -14 c0 -27 -22 -39 -31 -16 -8 22
3 49 19 43 6 -2 12 -14 12 -27z"/>
<path d="M13248 3707 c-7 -22 7 -80 20 -83 7 -1 8 0 2 3 -12 6 -13 60 -1 65 5
2 3 8 -4 15 -10 9 -14 9 -17 0z"/>
<path d="M11684 3661 c2 -84 70 -84 72 0 l2 44 -7 -45 c-5 -40 -9 -45 -31 -45
-22 0 -26 5 -31 45 l-7 45 2 -44z"/>
<path d="M11904 3690 c-12 -12 -6 -90 7 -90 5 0 9 15 10 33 0 17 2 40 4 50 4
19 -6 22 -21 7z"/>
<path d="M12279 3688 c-1 -7 -1 -17 0 -22 1 -4 -4 -14 -10 -22 -17 -20 6 -44
41 -41 20 1 27 7 27 22 0 14 -6 21 -18 21 -14 0 -17 -5 -13 -19 4 -14 2 -18
-12 -15 -28 5 -28 27 1 40 15 6 24 18 23 27 -4 20 -38 27 -39 9z m31 -8 c0 -5
-4 -10 -10 -10 -5 0 -10 5 -10 10 0 6 5 10 10 10 6 0 10 -4 10 -10z"/>
<path d="M12780 3681 c-13 -26 4 -64 27 -59 25 5 40 35 27 56 -16 25 -41 26
-54 3z m45 -21 c0 -16 -6 -26 -17 -28 -14 -3 -18 3 -18 28 0 25 4 31 18 28 11
-2 17 -12 17 -28z"/>
<path d="M12862 3658 c1 -41 1 -41 5 -8 3 19 10 38 16 42 8 5 6 8 -5 8 -15 0
-18 -8 -16 -42z"/>
<path d="M12910 3685 c-15 -18 -10 -45 12 -59 12 -7 21 -7 28 0 8 8 4 10 -11
10 -12 -1 -24 5 -26 12 -3 8 6 12 27 12 28 0 30 2 20 20 -13 24 -33 26 -50 5z
m40 -5 c0 -5 -9 -10 -21 -10 -11 0 -17 5 -14 10 3 6 13 10 21 10 8 0 14 -4 14
-10z"/>
<path d="M12981 3656 c1 -42 3 -41 13 7 9 38 34 35 39 -5 4 -33 4 -33 3 2 -1
31 -4 35 -28 36 -26 1 -28 -1 -27 -40z"/>
<path d="M13144 3686 c-16 -41 20 -86 47 -59 6 6 1 9 -12 9 -12 -1 -24 5 -26
12 -3 7 5 12 22 12 20 0 26 4 23 18 -4 22 -46 29 -54 8z m46 -6 c0 -5 -9 -10
-21 -10 -11 0 -17 5 -14 10 3 6 13 10 21 10 8 0 14 -4 14 -10z"/>
<path d="M13223 3660 c0 -25 2 -35 4 -22 2 12 2 32 0 45 -2 12 -4 2 -4 -23z"/>
<path d="M13291 3658 c2 -34 3 -37 6 -13 2 17 12 36 21 43 14 11 13 12 -6 12
-19 0 -22 -5 -21 -42z"/>
<path d="M13346 3692 c-3 -6 3 -8 14 -5 26 7 26 -14 0 -22 -11 -3 -20 -15 -20
-26 0 -15 6 -19 30 -17 29 2 31 5 28 38 -2 27 -8 36 -25 38 -11 2 -24 -1 -27
-6z m34 -47 c0 -8 -7 -15 -15 -15 -16 0 -20 12 -8 23 11 12 23 8 23 -8z"/>
<path d="M13420 3685 c-17 -20 -9 -48 18 -60 31 -14 28 -29 -5 -20 -21 5 -25
4 -17 -5 7 -7 20 -10 30 -8 15 2 20 14 22 56 3 46 1 52 -16 52 -11 0 -25 -7
-32 -15z m40 -25 c0 -32 -23 -42 -34 -15 -8 21 3 45 20 45 9 0 14 -11 14 -30z"/>
<path d="M13502 3688 c-25 -25 -6 -68 29 -68 10 0 21 5 24 10 4 7 -2 9 -18 5
-17 -5 -26 -2 -30 9 -5 12 0 16 23 16 17 0 30 4 30 8 0 12 -22 32 -35 32 -6 0
-16 -5 -23 -12z m43 -8 c4 -6 -5 -10 -20 -10 -15 0 -24 4 -20 10 3 6 12 10 20
10 8 0 17 -4 20 -10z"/>
<path d="M11781 3636 c1 -42 3 -41 13 7 9 37 29 29 37 -14 l6 -34 2 38 c1 49
28 51 34 2 l4 -35 -1 37 -1 38 -47 1 -48 1 1 -41z"/>
<path d="M11941 3638 c2 -34 3 -37 6 -13 2 17 12 36 21 43 14 11 13 12 -6 12
-19 0 -22 -5 -21 -42z"/>
<path d="M11996 3672 c-3 -6 3 -8 14 -5 26 7 26 -14 0 -22 -11 -3 -20 -15 -20
-26 0 -15 6 -19 30 -17 29 2 31 5 28 38 -2 27 -8 36 -25 38 -11 2 -24 -1 -27
-6z m34 -47 c0 -8 -7 -15 -15 -15 -16 0 -20 12 -8 23 11 12 23 8 23 -8z"/>
<path d="M12070 3665 c-17 -20 -9 -48 18 -60 31 -14 28 -29 -5 -20 -21 5 -25
4 -17 -5 7 -7 20 -10 30 -8 15 2 20 14 22 56 3 46 1 52 -16 52 -11 0 -25 -7
-32 -15z m40 -25 c0 -32 -23 -42 -34 -15 -8 21 3 45 20 45 9 0 14 -11 14 -30z"/>
<path d="M12152 3668 c-25 -25 -6 -68 29 -68 10 0 21 5 24 10 4 7 -2 9 -18 5
-17 -5 -26 -2 -30 9 -5 12 0 16 23 16 17 0 30 4 30 8 0 12 -22 32 -35 32 -6 0
-16 -5 -23 -12z m43 -8 c4 -6 -5 -10 -20 -10 -15 0 -24 4 -20 10 3 6 12 10 20
10 8 0 17 -4 20 -10z"/>
<path d="M2997 3663 c18 -4 23 -12 26 -51 l3 -47 2 47 c2 35 6 48 20 51 9 3
-3 5 -28 4 -25 0 -35 -2 -23 -4z"/>
<path d="M3210 3660 c0 -5 -6 -10 -14 -10 -8 0 -16 -6 -19 -12 -4 -10 -7 -10
-18 0 -21 20 -34 14 -14 -8 17 -19 17 -21 0 -40 -10 -11 -13 -20 -7 -20 6 0
15 8 21 18 9 16 10 16 16 0 4 -10 11 -18 16 -18 5 0 4 8 -2 19 -13 19 -6 51
10 51 5 0 11 -14 13 -32 2 -17 9 -33 16 -34 7 -1 8 0 2 3 -12 6 -13 60 -1 65
5 2 3 9 -5 16 -8 7 -14 8 -14 2z"/>
<path d="M3381 3625 c-1 -43 2 -51 18 -52 28 -2 44 22 37 53 -5 19 -12 25 -26
21 -12 -3 -21 1 -23 12 -3 9 -5 -7 -6 -34z m44 -15 c0 -13 -6 -25 -12 -27 -16
-6 -27 21 -19 43 9 23 31 11 31 -16z"/>
<path d="M3568 3660 c-5 -17 3 -90 11 -90 3 0 5 21 4 46 -1 46 -8 65 -15 44z"/>
<path d="M9521 3618 c1 -29 4 -43 6 -30 2 12 9 22 16 22 6 0 22 -10 35 -22
l25 -23 -12 23 c-9 17 -9 27 -2 36 19 23 2 46 -35 46 l-34 0 1 -52z m62 36
c12 -12 -6 -34 -29 -34 -17 0 -24 6 -24 20 0 14 7 20 23 20 13 0 26 -3 30 -6z"/>
<path d="M9772 3620 c1 -46 2 -49 7 -20 4 22 12 35 21 35 9 0 18 -13 22 -35
l6 -35 -1 40 c-2 33 -6 40 -22 40 -11 0 -23 7 -27 15 -4 8 -6 -10 -6 -40z"/>
<path d="M10052 3620 c1 -45 2 -48 7 -21 8 48 31 53 31 7 0 -20 5 -36 10 -36
11 0 13 24 3 58 -4 17 -11 22 -24 19 -11 -3 -20 1 -22 12 -3 9 -5 -9 -5 -39z"/>
<path d="M10259 3658 c-1 -7 -1 -17 0 -22 1 -4 -4 -14 -10 -22 -17 -20 6 -44
41 -41 20 1 27 7 27 22 0 14 -6 21 -18 21 -14 0 -17 -5 -13 -19 4 -14 2 -18
-12 -15 -28 5 -28 27 1 40 15 6 24 18 23 27 -4 20 -38 27 -39 9z m31 -8 c0 -5
-4 -10 -10 -10 -5 0 -10 5 -10 10 0 6 5 10 10 10 6 0 10 -4 10 -10z"/>
<path d="M10390 3645 c-29 -73 -31 -81 -16 -62 17 22 52 22 60 1 4 -9 9 -15
11 -12 7 7 -28 98 -37 98 -5 0 -13 -11 -18 -25z m30 -21 c0 -8 -7 -14 -15 -14
-17 0 -18 2 -9 24 7 18 24 12 24 -10z"/>
<path d="M10548 3658 c-2 -7 -1 -31 3 -53 l6 -40 2 38 c0 20 1 40 0 43 0 4 5
11 13 15 10 7 9 9 -3 9 -9 0 -19 -6 -21 -12z"/>
<path d="M10590 3623 c0 -45 3 -53 19 -53 42 0 54 53 16 74 -11 6 -23 16 -27
21 -4 6 -8 -14 -8 -42z m44 2 c8 -21 -3 -45 -20 -45 -9 0 -14 11 -14 30 0 32
23 42 34 15z"/>
<path d="M10898 3657 c-7 -22 7 -80 20 -83 7 -1 8 0 2 3 -12 6 -13 60 -1 65 5
2 3 8 -4 15 -10 9 -14 9 -17 0z"/>
<path d="M2032 3613 l-2 -53 33 1 c29 2 29 2 5 6 -24 4 -27 9 -31 51 l-3 47
-2 -52z"/>
<path d="M2180 3610 c0 -27 5 -50 10 -50 6 0 10 16 10 35 0 50 27 48 33 -2 l4
-38 1 38 c2 31 -2 40 -18 44 -11 3 -20 9 -20 14 0 5 -4 9 -10 9 -5 0 -10 -22
-10 -50z"/>
<path d="M2460 3650 c0 -5 -9 -10 -20 -10 -25 0 -34 -21 -26 -55 5 -18 13 -25
31 -25 23 0 25 3 25 50 0 28 -2 50 -5 50 -3 0 -5 -4 -5 -10z m-5 -50 c0 -13
-6 -25 -12 -27 -16 -6 -27 21 -19 43 9 23 31 11 31 -16z"/>
<path d="M4002 3613 l-2 -53 33 1 c29 2 29 2 5 6 -24 4 -27 9 -31 51 l-3 47
-2 -52z"/>
<path d="M4152 3610 c1 -46 2 -49 7 -20 4 22 12 35 21 35 9 0 18 -13 22 -35
l6 -35 -1 40 c-2 33 -6 40 -22 40 -11 0 -23 7 -27 15 -4 8 -6 -10 -6 -40z"/>
<path d="M4430 3651 c0 -5 -10 -11 -22 -13 -19 -2 -23 -9 -23 -38 0 -31 3 -35
28 -38 26 -3 27 -2 27 47 0 28 -2 51 -5 51 -3 0 -5 -4 -5 -9z m-5 -41 c8 -24
-1 -40 -21 -40 -9 0 -14 11 -14 30 0 35 25 42 35 10z"/>
<path d="M5052 3613 l-2 -53 33 1 c29 2 29 2 5 6 -24 4 -27 9 -31 51 l-3 47
-2 -52z"/>
<path d="M5212 3610 c1 -45 2 -48 7 -21 8 48 31 53 31 7 0 -20 5 -36 10 -36
12 0 13 50 1 69 -5 8 -16 11 -24 8 -10 -4 -17 1 -20 11 -3 9 -5 -8 -5 -38z"/>
<path d="M5480 3652 c0 -4 -10 -12 -22 -17 -44 -19 -30 -75 18 -75 22 0 24 4
24 50 0 28 -4 50 -10 50 -5 0 -10 -3 -10 -8z m0 -52 c0 -19 -5 -30 -14 -30
-17 0 -28 24 -20 45 11 27 34 17 34 -15z"/>
<path d="M3064 3636 c-16 -41 20 -86 47 -59 6 6 1 9 -12 9 -12 -1 -24 5 -26
12 -3 7 5 12 22 12 20 0 26 4 23 18 -4 22 -46 29 -54 8z m46 -6 c0 -5 -9 -10
-21 -10 -11 0 -17 5 -14 10 3 6 13 10 21 10 8 0 14 -4 14 -10z"/>
<path d="M3256 3642 c-3 -6 2 -8 13 -5 10 3 21 0 25 -5 3 -5 -6 -13 -20 -16
-35 -9 -28 -41 9 -42 26 -1 28 1 25 35 -2 28 -8 37 -25 39 -11 2 -24 -1 -27
-6z m44 -42 c0 -13 -28 -25 -38 -16 -3 4 0 11 8 16 20 13 30 12 30 0z"/>
<path d="M3331 3608 c2 -34 3 -37 6 -13 2 17 12 36 21 43 14 11 13 12 -6 12
-19 0 -22 -5 -21 -42z"/>
<path d="M3462 3638 c-25 -25 -6 -68 29 -68 10 0 21 5 24 10 4 7 -2 9 -18 5
-17 -5 -26 -2 -30 9 -5 12 0 16 23 16 17 0 30 4 30 8 0 12 -22 32 -35 32 -6 0
-16 -5 -23 -12z m43 -8 c4 -6 -5 -10 -20 -10 -15 0 -24 4 -20 10 3 6 12 10 20
10 8 0 17 -4 20 -10z"/>
<path d="M3543 3610 c0 -25 2 -35 4 -22 2 12 2 32 0 45 -2 12 -4 2 -4 -23z"/>
<path d="M6062 3600 c-12 -27 -17 -50 -11 -50 5 0 9 7 9 15 0 21 47 19 59 -2
16 -27 13 -4 -5 44 -9 24 -20 43 -24 43 -4 0 -17 -22 -28 -50z m38 4 c0 -8 -7
-14 -15 -14 -17 0 -18 2 -9 24 7 18 24 12 24 -10z"/>
<path d="M6313 3600 c0 -30 2 -43 4 -27 2 15 2 39 0 55 -2 15 -4 2 -4 -28z"/>
<path d="M6680 3600 c0 -46 2 -50 25 -50 31 0 50 32 35 60 -6 11 -17 20 -25
20 -8 0 -15 5 -15 10 0 6 -4 10 -10 10 -5 0 -10 -22 -10 -50z m50 -10 c0 -32
-23 -42 -34 -15 -8 21 3 45 20 45 9 0 14 -11 14 -30z"/>
<path d="M6868 3638 c-6 -20 6 -81 17 -85 8 -2 11 35 6 90 -1 12 -19 8 -23 -5z"/>
<path d="M7620 3631 c-25 -48 5 -89 56 -77 32 8 34 46 2 45 -18 -1 -19 -2 -5
-6 23 -6 17 -27 -10 -31 -41 -6 -57 49 -21 72 14 8 24 7 40 -3 21 -13 22 -13
9 2 -18 23 -58 21 -71 -2z"/>
<path d="M7970 3642 c0 -4 -10 -12 -22 -17 -44 -19 -30 -75 18 -75 22 0 24 4
24 50 0 28 -4 50 -10 50 -5 0 -10 -3 -10 -8z m0 -52 c0 -19 -5 -30 -14 -30
-17 0 -28 24 -20 45 11 27 34 17 34 -15z"/>
<path d="M8013 3600 c0 -30 2 -43 4 -27 2 15 2 39 0 55 -2 15 -4 2 -4 -28z"/>
<path d="M8358 3640 c-5 -17 3 -90 11 -90 3 0 5 21 4 46 -1 46 -8 65 -15 44z"/>
<path d="M8548 3640 c-5 -17 3 -90 11 -90 3 0 5 21 4 46 -1 46 -8 65 -15 44z"/>
<path d="M9624 3636 c-16 -41 20 -86 47 -59 6 6 1 9 -12 9 -12 -1 -24 5 -26
12 -3 7 5 12 22 12 20 0 26 4 23 18 -4 22 -46 29 -54 8z m41 -6 c3 -5 -3 -10
-14 -10 -12 0 -21 5 -21 10 0 6 6 10 14 10 8 0 18 -4 21 -10z"/>
<path d="M9704 3636 c-17 -43 21 -85 50 -56 8 9 4 10 -16 5 -26 -7 -28 -5 -28
25 0 27 3 32 20 27 11 -3 20 -1 20 4 0 15 -40 10 -46 -5z"/>
<path d="M9850 3631 c-8 -15 -8 -27 0 -41 11 -20 44 -27 54 -12 3 5 -4 8 -16
8 -12 -1 -23 5 -25 12 -3 7 5 12 22 12 20 0 26 4 23 18 -5 25 -44 27 -58 3z
m45 -1 c3 -5 -3 -10 -14 -10 -12 0 -21 5 -21 10 0 6 6 10 14 10 8 0 18 -4 21
-10z"/>
<path d="M9932 3608 c1 -41 1 -41 5 -8 3 19 10 38 16 42 8 5 6 8 -5 8 -15 0
-18 -8 -16 -42z"/>
<path d="M9980 3635 c-24 -29 14 -85 41 -58 9 9 7 11 -8 7 -13 -4 -22 0 -26
10 -10 25 3 48 24 43 11 -3 17 -1 13 4 -8 14 -30 11 -44 -6z"/>
<path d="M10132 3638 c-25 -25 -6 -68 29 -68 10 0 21 5 24 10 4 7 -2 9 -18 5
-17 -5 -26 -2 -30 9 -5 12 0 16 23 16 17 0 30 4 30 8 0 12 -22 32 -35 32 -6 0
-16 -5 -23 -12z m43 -8 c4 -6 -5 -10 -20 -10 -15 0 -24 4 -20 10 3 6 12 10 20
10 8 0 17 -4 20 -10z"/>
<path d="M10474 3610 c1 -28 5 -36 24 -38 20 -3 22 0 20 40 l-1 43 -4 -37 c-5
-48 -30 -51 -36 -5 -4 32 -4 32 -3 -3z"/>
<path d="M10670 3635 c-15 -18 -10 -45 12 -59 12 -7 21 -7 28 0 8 8 4 10 -11
10 -12 -1 -24 5 -26 12 -3 8 6 12 27 12 28 0 30 2 20 20 -13 24 -33 26 -50 5z
m40 -5 c0 -5 -9 -10 -21 -10 -11 0 -17 5 -14 10 3 6 13 10 21 10 8 0 14 -4 14
-10z"/>
<path d="M10741 3608 l1 -43 8 34 c4 18 14 37 22 42 9 6 7 9 -9 9 -20 0 -23
-5 -22 -42z"/>
<path d="M10794 3636 c-16 -41 20 -86 47 -59 6 6 1 9 -12 9 -12 -1 -24 5 -26
12 -3 7 5 12 22 12 20 0 26 4 23 18 -4 22 -46 29 -54 8z m41 -6 c3 -5 -3 -10
-14 -10 -12 0 -21 5 -21 10 0 6 6 10 14 10 8 0 18 -4 21 -10z"/>
<path d="M10873 3610 c0 -25 2 -35 4 -22 2 12 2 32 0 45 -2 12 -4 2 -4 -23z"/>
<path d="M10943 3615 c2 -36 5 -40 30 -41 25 -1 27 1 26 40 l-2 41 -6 -35 c-4
-22 -12 -35 -21 -35 -9 0 -18 13 -22 35 l-6 35 1 -40z"/>
<path d="M11021 3605 l2 -40 6 34 c8 48 31 53 31 7 0 -20 5 -36 10 -36 12 0
13 49 2 67 -4 7 -18 11 -30 10 -19 -1 -22 -7 -21 -42z"/>
<path d="M11100 3635 c-17 -20 -9 -48 18 -60 31 -14 28 -29 -5 -20 -21 5 -25
4 -17 -5 7 -7 20 -10 30 -8 15 2 20 14 22 56 3 46 1 52 -16 52 -11 0 -25 -7
-32 -15z m40 -25 c0 -32 -23 -42 -34 -15 -8 21 3 45 20 45 9 0 14 -11 14 -30z"/>
<path d="M2112 3628 c-31 -31 2 -79 41 -60 21 10 20 10 -7 9 -16 -1 -31 4 -33
11 -3 8 6 12 26 12 17 0 31 4 31 8 0 12 -22 32 -35 32 -6 0 -16 -5 -23 -12z
m38 -8 c0 -5 -9 -10 -21 -10 -11 0 -17 5 -14 10 3 6 13 10 21 10 8 0 14 -4 14
-10z"/>
<path d="M2260 3600 c0 -22 5 -40 10 -40 6 0 10 16 10 35 0 47 25 46 40 -1 7
-20 16 -32 20 -27 9 10 30 73 25 73 -3 0 -11 -15 -18 -32 l-14 -33 -7 33 c-6
27 -12 32 -37 32 -27 0 -29 -2 -29 -40z"/>
<path d="M2383 3600 c0 -25 2 -35 4 -22 2 12 2 32 0 45 -2 12 -4 2 -4 -23z"/>
<path d="M2494 3626 c-16 -41 20 -86 47 -59 6 6 1 9 -12 9 -12 -1 -24 5 -26
12 -3 7 5 12 22 12 20 0 26 4 23 18 -4 22 -46 29 -54 8z m46 -6 c0 -5 -9 -10
-21 -10 -11 0 -17 5 -14 10 3 6 13 10 21 10 8 0 14 -4 14 -10z"/>
<path d="M2574 3626 c-3 -8 -4 -25 -2 -38 2 -17 9 -23 28 -23 22 0 25 4 25 35
0 29 -4 36 -23 38 -13 2 -24 -3 -28 -12z m41 -26 c0 -13 -6 -25 -12 -27 -16
-6 -27 21 -19 43 9 23 31 11 31 -16z"/>
<path d="M4074 3626 c-16 -41 20 -86 47 -59 6 6 1 9 -12 9 -12 -1 -24 5 -26
12 -3 7 5 12 22 12 20 0 26 4 23 18 -4 22 -46 29 -54 8z m46 -6 c0 -5 -9 -10
-21 -10 -11 0 -17 5 -14 10 3 6 13 10 21 10 8 0 14 -4 14 -10z"/>
<path d="M4231 3598 l2 -43 6 35 c8 45 32 46 45 3 5 -18 12 -33 16 -33 9 0 30
56 29 74 0 6 -6 -5 -13 -24 l-13 -34 -11 32 c-8 25 -17 32 -36 32 -24 0 -26
-3 -25 -42z"/>
<path d="M4353 3600 c0 -25 2 -35 4 -22 2 12 2 32 0 45 -2 12 -4 2 -4 -23z"/>
<path d="M4460 3621 c-8 -15 -8 -27 0 -41 11 -20 44 -27 54 -12 3 5 -4 8 -16
8 -12 -1 -23 5 -25 12 -3 7 5 12 22 12 20 0 26 4 23 18 -5 25 -44 27 -58 3z
m45 -1 c3 -5 -3 -10 -14 -10 -12 0 -21 5 -21 10 0 6 6 10 14 10 8 0 18 -4 21
-10z"/>
<path d="M4540 3621 c-13 -26 4 -64 27 -59 25 5 40 35 27 56 -16 25 -41 26
-54 3z m45 -21 c0 -16 -6 -26 -17 -28 -14 -3 -18 3 -18 28 0 25 4 31 18 28 11
-2 17 -12 17 -28z"/>
<path d="M5134 3626 c-16 -41 20 -86 47 -59 6 6 1 9 -12 9 -12 -1 -24 5 -26
12 -3 7 5 12 22 12 20 0 26 4 23 18 -4 22 -46 29 -54 8z m41 -6 c3 -5 -3 -10
-14 -10 -12 0 -21 5 -21 10 0 6 6 10 14 10 8 0 18 -4 21 -10z"/>
<path d="M5292 3598 l1 -43 4 38 c5 48 33 48 47 -1 5 -17 13 -32 17 -32 9 0
31 71 24 78 -2 2 -7 -7 -11 -22 -8 -33 -20 -33 -28 -1 -5 18 -13 25 -31 25
-23 0 -25 -3 -23 -42z"/>
<path d="M5413 3600 c0 -25 2 -35 4 -22 2 12 2 32 0 45 -2 12 -4 2 -4 -23z"/>
<path d="M5522 3628 c-25 -25 -6 -68 29 -68 10 0 21 5 24 10 4 7 -2 9 -18 5
-17 -5 -26 -2 -30 9 -5 12 0 16 23 16 17 0 30 4 30 8 0 12 -22 32 -35 32 -6 0
-16 -5 -23 -12z m43 -8 c4 -6 -5 -10 -20 -10 -15 0 -24 4 -20 10 3 6 12 10 20
10 8 0 17 -4 20 -10z"/>
<path d="M5600 3625 c-26 -31 13 -82 44 -56 19 16 21 42 4 59 -16 16 -33 15
-48 -3z m44 -10 c8 -21 -3 -45 -20 -45 -8 0 -17 7 -20 15 -8 21 2 45 20 45 7
0 16 -7 20 -15z"/>
<path d="M6151 3585 l2 -40 6 34 c8 48 31 53 31 7 0 -20 5 -36 10 -36 11 0 13
24 4 57 -5 16 -13 22 -30 21 -21 -2 -24 -7 -23 -43z"/>
<path d="M6230 3621 c0 -5 9 -7 20 -4 29 8 25 -12 -6 -26 -33 -15 -26 -36 12
-38 28 -1 29 0 26 38 -4 33 -8 39 -28 39 -13 0 -24 -4 -24 -9z m40 -40 c0 -14
-18 -23 -31 -15 -8 4 -7 9 2 15 18 11 29 11 29 0z"/>
<path d="M6336 3609 c5 -13 9 -38 9 -56 0 -34 8 -32 20 5 4 13 2 22 -4 22 -6
0 -11 9 -11 19 0 11 -5 23 -11 27 -8 4 -9 -1 -3 -17z"/>
<path d="M6406 3615 c-4 -10 3 -20 19 -27 34 -15 32 -32 -2 -23 -21 5 -25 4
-17 -5 7 -7 20 -10 30 -8 27 5 30 35 5 43 -12 3 -21 11 -21 16 0 6 9 7 21 4
15 -5 19 -4 15 4 -10 16 -43 13 -50 -4z"/>
<path d="M6478 3605 c-8 -19 -8 -28 2 -40 14 -17 46 -20 55 -5 4 7 -2 9 -18 5
-17 -5 -26 -2 -30 9 -5 12 0 16 23 16 32 0 37 9 18 28 -19 19 -37 14 -50 -13z
m47 5 c3 -5 -3 -10 -14 -10 -12 0 -21 5 -21 10 0 6 6 10 14 10 8 0 18 -4 21
-10z"/>
<path d="M6566 3622 c-3 -6 3 -8 14 -5 29 8 25 -12 -6 -26 -34 -15 -26 -36 15
-37 31 -1 32 0 29 35 -2 28 -8 37 -25 39 -11 2 -24 -1 -27 -6z m34 -47 c0 -8
-7 -15 -15 -15 -16 0 -20 12 -8 23 11 12 23 8 23 -8z"/>
<path d="M6642 3588 c1 -41 1 -41 5 -8 3 19 10 38 16 42 8 5 6 8 -5 8 -15 0
-18 -8 -16 -42z"/>
<path d="M6764 3616 c-16 -41 20 -86 47 -59 6 6 1 9 -12 9 -12 -1 -24 5 -26
12 -3 7 5 12 22 12 20 0 26 4 23 18 -4 22 -46 29 -54 8z m46 -6 c0 -5 -9 -10
-21 -10 -11 0 -17 5 -14 10 3 6 13 10 21 10 8 0 14 -4 14 -10z"/>
<path d="M6843 3590 c0 -25 2 -35 4 -22 2 12 2 32 0 45 -2 12 -4 2 -4 -23z"/>
<path d="M7721 3588 l1 -43 8 34 c4 18 14 37 22 42 9 6 7 9 -9 9 -20 0 -23 -5
-22 -42z"/>
<path d="M7773 3595 c2 -36 5 -40 30 -41 25 -1 27 1 26 40 l-2 41 -6 -35 c-4
-22 -12 -35 -21 -35 -9 0 -18 13 -22 35 l-6 35 1 -40z"/>
<path d="M7851 3585 l2 -40 6 34 c8 48 31 53 31 7 0 -20 5 -36 10 -36 12 0 13
49 2 67 -4 7 -18 11 -30 10 -19 -1 -22 -7 -21 -42z"/>
<path d="M8046 3622 c-3 -6 3 -8 14 -5 29 8 25 -12 -6 -26 -34 -15 -26 -36 15
-37 31 -1 32 0 29 35 -2 28 -8 37 -25 39 -11 2 -24 -1 -27 -6z m34 -47 c0 -8
-7 -15 -15 -15 -16 0 -20 12 -8 23 11 12 23 8 23 -8z"/>
<path d="M8120 3615 c-17 -20 -9 -48 18 -60 31 -14 28 -29 -5 -20 -21 5 -25 4
-17 -5 7 -7 20 -10 30 -8 15 2 20 14 22 56 3 46 1 52 -16 52 -11 0 -25 -7 -32
-15z m40 -25 c0 -19 -5 -30 -14 -30 -17 0 -28 24 -20 45 11 27 34 17 34 -15z"/>
<path d="M8202 3618 c-25 -25 -6 -68 29 -68 10 0 21 5 24 10 4 7 -2 9 -18 5
-17 -5 -26 -2 -30 9 -5 12 0 16 23 16 17 0 30 4 30 8 0 12 -22 32 -35 32 -6 0
-16 -5 -23 -12z m43 -8 c4 -6 -5 -10 -20 -10 -15 0 -24 4 -20 10 3 6 12 10 20
10 8 0 17 -4 20 -10z"/>
<path d="M8282 3588 l1 -43 4 38 c3 23 9 37 18 37 9 0 15 -14 18 -37 l4 -38
-1 40 c-1 33 -5 41 -23 43 -21 3 -23 0 -21 -40z"/>
<path d="M8400 3615 c-15 -18 -10 -45 12 -59 12 -7 21 -7 28 0 8 8 4 10 -11
10 -12 -1 -24 5 -26 12 -3 8 6 12 27 12 28 0 30 2 20 20 -13 24 -33 26 -50 5z
m40 -5 c0 -5 -9 -10 -21 -10 -11 0 -17 5 -14 10 3 6 13 10 21 10 8 0 14 -4 14
-10z"/>
<path d="M8479 3611 c9 -17 10 -26 2 -34 -6 -6 -11 -16 -11 -21 0 -6 7 -2 15
8 13 17 15 17 21 3 3 -10 10 -17 15 -17 5 0 4 9 -3 20 -10 16 -10 24 0 40 7
11 8 20 3 20 -5 0 -11 -6 -14 -12 -3 -10 -8 -9 -22 2 -17 14 -18 14 -6 -9z"/>
<path d="M8590 3615 c-15 -18 -10 -45 12 -59 12 -7 21 -7 28 0 8 8 4 10 -11
10 -12 -1 -24 5 -26 12 -3 8 6 12 27 12 28 0 30 2 20 20 -13 24 -33 26 -50 5z
m40 -5 c0 -5 -9 -10 -21 -10 -11 0 -17 5 -14 10 3 6 13 10 21 10 8 0 14 -4 14
-10z"/>
<path d="M12761 3504 c-1 -49 0 -51 27 -50 24 1 27 5 27 36 0 28 -4 35 -20 35
-11 0 -23 7 -27 15 -4 8 -7 -8 -7 -36z m44 -14 c0 -13 -6 -25 -12 -27 -16 -6
-27 21 -19 43 9 23 31 11 31 -16z"/>
<path d="M13078 3540 c-5 -17 3 -90 11 -90 3 0 5 21 4 46 -1 46 -8 65 -15 44z"/>
<path d="M13350 3542 c0 -7 -11 -12 -25 -12 -23 0 -25 -3 -24 -42 l2 -43 6 35
c9 50 41 55 41 6 0 -20 3 -36 8 -36 8 0 7 88 -2 97 -3 4 -6 1 -6 -5z"/>
<path d="M11630 3480 l0 -50 38 2 c36 1 36 1 5 5 -43 6 -47 40 -5 46 l27 4
-27 2 c-40 2 -36 29 5 34 31 4 31 4 -5 5 l-38 2 0 -50z"/>
<path d="M11773 3480 c0 -30 2 -43 4 -27 2 15 2 39 0 55 -2 15 -4 2 -4 -28z"/>
<path d="M11881 3485 c-1 -43 2 -51 18 -52 28 -2 44 22 37 53 -5 19 -12 25
-26 21 -12 -3 -21 1 -23 12 -3 9 -5 -7 -6 -34z m44 -15 c0 -27 -22 -39 -31
-16 -8 22 3 49 19 43 6 -2 12 -14 12 -27z"/>
<path d="M12141 3485 c-1 -43 2 -51 18 -52 28 -2 44 22 37 53 -5 19 -12 25
-26 21 -12 -3 -21 1 -23 12 -3 9 -5 -7 -6 -34z m44 -15 c0 -27 -22 -39 -31
-16 -8 22 3 49 19 43 6 -2 12 -14 12 -27z"/>
<path d="M12378 3518 c-2 -7 -1 -31 3 -53 l6 -40 2 38 c0 20 1 40 0 43 0 4 5
11 13 15 10 7 9 9 -3 9 -9 0 -19 -6 -21 -12z"/>
<path d="M12844 3516 c-16 -41 20 -86 47 -59 6 6 1 9 -12 9 -12 -1 -24 5 -26
12 -3 7 5 12 22 12 20 0 26 4 23 18 -4 22 -46 29 -54 8z m46 -6 c0 -5 -9 -10
-21 -10 -11 0 -17 5 -14 10 3 6 13 10 21 10 8 0 14 -4 14 -10z"/>
<path d="M12926 3522 c-3 -6 2 -8 13 -5 10 3 21 0 25 -5 3 -5 -5 -13 -19 -16
-16 -4 -25 -13 -25 -26 0 -16 6 -20 30 -18 29 2 31 5 28 38 -2 27 -8 36 -25
38 -11 2 -24 -1 -27 -6z m44 -42 c0 -12 -28 -25 -36 -17 -9 9 6 27 22 27 8 0
14 -5 14 -10z"/>
<path d="M13001 3485 l2 -40 6 34 c8 48 31 53 31 7 0 -20 5 -36 10 -36 12 0
13 49 2 67 -4 7 -18 11 -30 10 -19 -1 -22 -7 -21 -42z"/>
<path d="M13114 3515 c10 -47 18 -65 27 -60 5 4 9 15 9 26 0 11 5 17 10 14 6
-3 10 1 10 9 0 27 -18 26 -25 -2 l-7 -27 -14 30 c-7 17 -12 21 -10 10z"/>
<path d="M13193 3515 c-3 -9 -3 -18 -1 -21 3 -3 8 4 11 16 6 23 -1 27 -10 5z"/>
<path d="M13224 3516 c-3 -8 -4 -25 -2 -38 2 -17 9 -23 28 -23 22 0 25 4 25
35 0 29 -4 36 -23 38 -13 2 -24 -3 -28 -12z m41 -26 c0 -27 -22 -39 -31 -16
-8 22 3 49 19 43 6 -2 12 -14 12 -27z"/>
<path d="M13392 3518 c-25 -25 -6 -68 29 -68 10 0 21 5 24 10 4 7 -2 9 -18 5
-17 -5 -26 -2 -30 9 -5 12 0 16 23 16 17 0 30 4 30 8 0 12 -22 32 -35 32 -6 0
-16 -5 -23 -12z m43 -8 c4 -6 -5 -10 -20 -10 -15 0 -24 4 -20 10 3 6 12 10 20
10 8 0 17 -4 20 -10z"/>
<path d="M13472 3488 l1 -43 4 38 c3 23 9 37 18 37 9 0 15 -14 18 -37 l4 -38
-1 40 c-1 33 -5 41 -23 43 -21 3 -23 0 -21 -40z"/>
<path d="M11721 3468 c2 -34 3 -37 6 -13 2 17 12 36 21 43 14 11 13 12 -6 12
-19 0 -22 -5 -21 -42z"/>
<path d="M11800 3491 c-8 -15 -8 -27 0 -41 11 -20 44 -27 54 -12 3 5 -4 8 -16
8 -12 -1 -23 5 -25 12 -3 7 5 12 22 12 20 0 26 4 23 18 -5 25 -44 27 -58 3z
m45 -1 c3 -5 -3 -10 -14 -10 -12 0 -21 5 -21 10 0 6 6 10 14 10 8 0 18 -4 21
-10z"/>
<path d="M11962 3468 l1 -43 4 38 c3 23 9 37 18 37 9 0 15 -14 18 -37 l4 -38
1 43 c2 39 0 42 -23 42 -23 0 -25 -3 -23 -42z"/>
<path d="M12043 3470 c0 -25 2 -35 4 -22 2 12 2 32 0 45 -2 12 -4 2 -4 -23z"/>
<path d="M12067 3503 c-13 -12 -7 -23 18 -35 34 -15 32 -32 -2 -23 -21 5 -25
4 -17 -5 7 -7 20 -10 30 -8 27 5 30 35 5 43 -12 3 -21 11 -21 16 0 6 9 7 21 4
15 -5 19 -4 15 4 -8 12 -39 15 -49 4z"/>
<path d="M12222 3468 c1 -41 1 -41 5 -8 3 19 10 38 16 42 8 5 6 8 -5 8 -15 0
-18 -8 -16 -42z"/>
<path d="M12260 3470 c0 -22 5 -40 10 -40 6 0 10 18 10 40 0 22 -4 40 -10 40
-5 0 -10 -18 -10 -40z"/>
<path d="M12302 3498 c-31 -31 2 -79 41 -60 21 10 20 10 -7 9 -16 -1 -31 4
-33 11 -3 8 6 12 26 12 17 0 31 4 31 8 0 12 -22 32 -35 32 -6 0 -16 -5 -23
-12z m38 -8 c0 -5 -9 -10 -21 -10 -11 0 -17 5 -14 10 3 6 13 10 21 10 8 0 14
-4 14 -10z"/>
<path d="M10154 3476 c-15 -24 -15 -28 0 -51 24 -36 86 -32 86 6 0 14 -7 19
-27 18 -17 -1 -21 -3 -10 -6 29 -8 21 -35 -10 -31 -23 2 -29 8 -31 36 -4 38
19 52 50 33 16 -10 19 -10 16 1 -3 7 -16 14 -31 16 -19 2 -30 -4 -43 -22z"/>
<path d="M10003 3440 c0 -25 2 -35 4 -22 2 12 2 32 0 45 -2 12 -4 2 -4 -23z"/>
<path d="M10031 3435 l2 -40 6 34 c8 48 31 53 31 7 0 -20 5 -36 10 -36 11 0
13 24 4 57 -5 16 -13 22 -30 21 -21 -2 -24 -7 -23 -43z"/>
<path d="M10262 3438 c1 -41 1 -41 5 -8 3 19 10 38 16 42 8 5 6 8 -5 8 -15 0
-18 -8 -16 -42z"/>
<path d="M10312 3443 c-2 -35 1 -43 16 -43 11 0 13 3 5 8 -6 4 -13 23 -16 42
-4 33 -4 33 -5 -7z"/>
<path d="M10353 3440 c0 -25 2 -35 4 -22 2 12 2 32 0 45 -2 12 -4 2 -4 -23z"/>
<path d="M10380 3425 c0 -30 5 -55 10 -55 6 0 10 7 10 15 0 8 7 15 15 15 8 0
19 9 25 20 15 28 -4 60 -35 60 -24 0 -25 -3 -25 -55z m50 15 c0 -32 -23 -42
-34 -15 -8 21 3 45 20 45 9 0 14 -11 14 -30z"/>
<path d="M10461 3421 c1 -31 3 -48 6 -39 2 9 14 18 26 20 18 2 22 10 22 38 0
31 -3 35 -27 36 -27 1 -28 0 -27 -55z m49 19 c0 -19 -5 -30 -14 -30 -20 0 -29
16 -21 40 10 32 35 25 35 -10z"/>
<path d="M10544 3466 c-16 -41 20 -86 47 -59 6 6 1 9 -12 9 -12 -1 -24 5 -26
12 -3 7 5 12 22 12 20 0 26 4 23 18 -4 22 -46 29 -54 8z m46 -6 c0 -5 -9 -10
-21 -10 -11 0 -17 5 -14 10 3 6 13 10 21 10 8 0 14 -4 14 -10z"/>
<path d="M10621 3436 l2 -41 6 35 c4 22 12 35 21 35 9 0 18 -13 22 -35 l6 -35
-1 40 c-2 36 -5 40 -29 41 -26 1 -28 -1 -27 -40z"/>
<path d="M13170 3464 c0 -8 5 -12 10 -9 6 3 10 10 10 16 0 5 -4 9 -10 9 -5 0
-10 -7 -10 -16z"/>
<path d="M345 3398 c-3 -7 -4 -198 -3 -423 l3 -410 530 0 530 0 0 420 0 420
-528 3 c-417 2 -529 0 -532 -10z m1055 -413 l0 -415 -525 0 -525 0 0 415 0
415 525 0 525 0 0 -415z"/>
<path d="M13855 3378 c-3 -7 -4 -195 -3 -418 l3 -405 530 0 530 0 0 415 0 415
-528 3 c-417 2 -529 0 -532 -10z m1055 -408 l0 -410 -525 0 -525 0 0 410 0
410 525 0 525 0 0 -410z"/>
<path d="M12700 2965 l0 -355 405 0 405 0 0 355 0 355 -405 0 -405 0 0 -355z
m800 0 l0 -345 -395 0 -395 0 0 345 0 345 395 0 395 0 0 -345z"/>
<path d="M9490 2950 l0 -360 405 0 405 0 0 360 0 360 -405 0 -405 0 0 -360z
m800 0 l0 -350 -395 0 -395 0 0 350 0 350 395 0 395 0 0 -350z"/>
<path d="M10420 2950 l0 -360 405 0 405 0 0 360 0 360 -405 0 -405 0 0 -360z
m800 0 l0 -350 -395 0 -395 0 0 350 0 350 395 0 395 0 0 -350z"/>
<path d="M11620 2955 l0 -355 405 0 405 0 0 355 0 355 -405 0 -405 0 0 -355z
m800 0 l0 -345 -395 0 -395 0 0 345 0 345 395 0 395 0 0 -345z"/>
<path d="M4940 2940 l0 -360 405 0 405 0 0 360 0 360 -405 0 -405 0 0 -360z
m800 0 l0 -350 -395 0 -395 0 0 350 0 350 395 0 395 0 0 -350z"/>
<path d="M6070 2940 l0 -360 405 0 405 0 0 360 0 360 -405 0 -405 0 0 -360z
m800 0 l0 -350 -395 0 -395 0 0 350 0 350 395 0 395 0 0 -350z"/>
<path d="M7290 2940 l0 -360 405 0 405 0 0 360 0 360 -405 0 -405 0 0 -360z
m800 0 l0 -350 -395 0 -395 0 0 350 0 350 395 0 395 0 0 -350z"/>
<path d="M8250 2940 l0 -360 405 0 405 0 0 360 0 360 -405 0 -405 0 0 -360z
m800 0 l0 -350 -395 0 -395 0 0 350 0 350 395 0 395 0 0 -350z"/>
<path d="M2890 2930 l0 -360 405 0 405 0 0 360 0 360 -405 0 -405 0 0 -360z
m800 0 l0 -350 -395 0 -395 0 0 350 0 350 395 0 395 0 0 -350z"/>
<path d="M3960 2935 l0 -355 405 0 405 0 0 355 0 355 -405 0 -405 0 0 -355z
m800 0 l0 -345 -395 0 -395 0 0 345 0 345 395 0 395 0 0 -345z"/>
<path d="M1930 2925 l0 -355 405 0 405 0 0 355 0 355 -405 0 -405 0 0 -355z
m800 0 l0 -345 -395 0 -395 0 0 345 0 345 395 0 395 0 0 -345z"/>
<path d="M6020 1945 l0 -365 455 0 455 0 0 365 0 365 -455 0 -455 0 0 -365z
m890 0 l0 -345 -435 0 -435 0 0 345 0 345 435 0 435 0 0 -345z"/>
<path d="M6173 2093 c13 -4 17 -15 17 -59 0 -30 5 -54 10 -54 6 0 10 24 10 54
0 49 2 55 23 59 12 2 0 4 -28 4 -27 1 -42 -1 -32 -4z"/>
<path d="M6260 2040 c0 -33 4 -60 10 -60 6 0 10 18 10 40 0 29 4 40 15 40 11
0 15 -11 15 -40 0 -22 5 -40 10 -40 11 0 14 49 4 74 -3 9 -15 16 -25 16 -10 0
-19 7 -19 15 0 8 -4 15 -10 15 -6 0 -10 -27 -10 -60z"/>
<path d="M6354 2056 c-3 -8 -4 -27 -2 -43 4 -34 37 -43 59 -16 13 16 12 17 -3
4 -19 -14 -48 -9 -48 9 0 5 14 10 30 10 18 0 30 5 30 13 0 32 -55 51 -66 23z
m50 -11 c4 -11 -1 -15 -19 -15 -24 0 -32 10 -18 23 11 12 31 8 37 -8z"/>
<path d="M6441 2021 l2 -46 6 40 c4 26 11 40 21 40 10 0 17 -14 21 -40 l5 -40
5 40 c3 27 9 40 19 40 10 0 17 -14 21 -40 l7 -40 -2 45 -1 45 -52 1 -53 1 1
-46z"/>
<path d="M6582 2058 c-16 -16 -15 -53 3 -68 18 -15 47 -10 53 10 5 13 3 13
-11 1 -18 -14 -47 -9 -47 9 0 5 14 10 30 10 18 0 30 5 30 13 0 16 -20 37 -35
37 -6 0 -16 -5 -23 -12z m46 -15 c2 -8 -6 -13 -22 -13 -19 0 -24 4 -19 15 6
18 34 16 41 -2z"/>
<path d="M6660 2023 c0 -24 5 -43 10 -43 6 0 10 18 10 40 0 29 4 40 15 40 11
0 15 -11 15 -40 0 -22 5 -40 10 -40 12 0 13 60 2 78 -5 6 -20 11 -35 10 -25
-2 -27 -6 -27 -45z"/>
<path d="M6753 2013 c9 -2 23 -2 30 0 6 3 -1 5 -18 5 -16 0 -22 -2 -12 -5z"/>
<path d="M6231 1855 c-1 -56 1 -61 21 -62 29 -3 48 14 48 42 0 27 -24 49 -44
42 -10 -4 -16 2 -19 16 -2 12 -5 -5 -6 -38z m54 -4 c8 -26 -5 -53 -24 -49 -29
6 -27 68 3 68 8 0 17 -8 21 -19z"/>
<path d="M6323 1850 c0 -36 2 -50 4 -32 2 17 2 47 0 65 -2 17 -4 3 -4 -33z"/>
<path d="M6520 1850 c0 -33 4 -60 10 -60 6 0 10 10 10 23 l1 22 18 -22 c27
-33 35 -28 14 8 -17 30 -17 31 1 45 11 8 16 14 11 14 -5 0 -17 -7 -27 -17 -17
-15 -18 -14 -18 15 0 18 -4 32 -10 32 -6 0 -10 -27 -10 -60z"/>
<path d="M6657 1904 c-14 -14 -7 -26 8 -14 13 10 18 11 28 1 9 -10 8 -15 -7
-27 -16 -11 -17 -14 -4 -14 20 0 29 -22 17 -41 -7 -12 -12 -12 -30 -1 -18 11
-20 11 -17 0 7 -19 43 -21 57 -4 8 9 10 23 6 33 -4 10 -8 29 -9 43 -1 25 -33
40 -49 24z"/>
<path d="M6362 1868 c-7 -7 -12 -21 -12 -33 0 -46 53 -62 71 -21 21 45 -26 87
-59 54z m43 -33 c0 -33 -28 -47 -39 -19 -10 25 3 56 22 52 11 -2 17 -13 17
-33z"/>
<path d="M6452 1868 c-27 -27 -7 -78 29 -78 10 0 21 5 24 10 4 7 -2 9 -18 5
-28 -7 -42 14 -31 47 4 15 12 18 31 13 16 -4 22 -2 18 5 -8 14 -38 13 -53 -2z"/>
<path d="M7250 1945 l0 -365 955 0 955 0 0 365 0 365 -955 0 -955 0 0 -365z
m1890 0 l0 -345 -935 0 -935 0 0 345 0 345 935 0 935 0 0 -345z"/>
<path d="M7683 1993 c13 -4 17 -15 17 -59 0 -30 5 -54 10 -54 6 0 10 24 10 54
0 49 2 55 23 59 12 2 0 4 -28 4 -27 1 -42 -1 -32 -4z"/>
<path d="M7773 1940 c-1 -36 1 -56 4 -45 2 11 6 30 9 43 8 40 34 27 34 -18 0
-22 5 -40 10 -40 12 0 13 60 1 79 -5 8 -18 12 -29 9 -16 -4 -22 0 -25 16 -2
11 -4 -8 -4 -44z"/>
<path d="M8261 1945 c-1 -56 1 -61 21 -62 29 -3 48 14 48 42 0 27 -24 49 -44
42 -10 -4 -16 2 -19 16 -2 12 -5 -5 -6 -38z m54 -4 c8 -26 -5 -53 -24 -49 -29
6 -27 68 3 68 8 0 17 -8 21 -19z"/>
<path d="M8353 1940 c0 -36 2 -50 4 -32 2 17 2 47 0 65 -2 17 -4 3 -4 -33z"/>
<path d="M8550 1940 c0 -33 4 -60 10 -60 6 0 10 10 10 23 l1 22 18 -22 c27
-32 33 -28 13 7 -16 30 -16 32 2 45 11 8 16 15 11 15 -5 0 -17 -7 -27 -17 -17
-15 -18 -14 -18 15 0 18 -4 32 -10 32 -6 0 -10 -27 -10 -60z"/>
<path d="M8718 1995 c-3 -4 -4 -22 -1 -41 4 -27 2 -34 -11 -34 -18 0 -22 15
-6 25 6 3 10 12 10 18 0 13 -39 -32 -40 -45 0 -5 11 -8 24 -8 15 0 26 -7 29
-17 4 -17 5 -17 6 0 0 9 7 17 14 17 9 0 9 2 0 8 -6 4 -13 25 -15 46 -2 21 -6
35 -10 31z"/>
<path d="M7860 1944 c-19 -48 28 -87 60 -49 8 9 8 15 2 15 -6 0 -12 -5 -14
-12 -5 -14 -38 -4 -38 12 0 5 14 10 30 10 31 0 39 17 18 38 -20 20 -48 14 -58
-14z m54 1 c4 -11 -1 -15 -19 -15 -24 0 -32 10 -18 23 11 12 31 8 37 -8z"/>
<path d="M7951 1921 l2 -46 6 40 c4 26 11 40 21 40 10 0 17 -14 21 -40 l5 -40
5 40 c3 27 9 40 19 40 10 0 17 -14 21 -40 l7 -40 -2 45 -1 45 -52 1 -53 1 1
-46z"/>
<path d="M8092 1958 c-19 -19 -15 -66 7 -73 22 -7 51 3 51 17 0 6 -6 5 -15 -2
-16 -13 -45 -7 -45 10 0 5 14 10 30 10 18 0 30 5 30 13 0 16 -20 37 -35 37 -6
0 -16 -5 -23 -12z m46 -15 c2 -8 -6 -13 -22 -13 -25 0 -33 10 -19 24 10 10 36
3 41 -11z"/>
<path d="M8171 1920 c1 -25 3 -36 6 -25 2 11 6 30 9 43 8 40 34 27 34 -18 0
-22 5 -40 10 -40 12 0 13 60 2 78 -5 6 -20 11 -35 10 -25 -2 -27 -5 -26 -48z"/>
<path d="M8392 1958 c-29 -29 -4 -84 35 -76 28 5 26 82 -2 86 -11 1 -26 -3
-33 -10z m43 -33 c0 -33 -28 -47 -39 -19 -10 25 3 56 22 52 11 -2 17 -13 17
-33z"/>
<path d="M8482 1958 c-27 -27 -7 -78 29 -78 10 0 20 4 24 9 3 6 -7 9 -22 8
-25 -2 -28 1 -28 28 0 27 3 30 28 28 15 -1 25 2 22 8 -9 13 -39 11 -53 -3z"/>
<path d="M13880 1950 l0 -360 535 0 535 0 0 360 0 360 -535 0 -535 0 0 -360z
m1050 0 l0 -340 -515 0 -515 0 0 340 0 340 515 0 515 0 0 -340z"/>
<path d="M14090 2040 l0 -60 43 2 42 1 -37 4 c-32 4 -38 8 -38 28 0 19 6 24
33 28 l32 4 -32 1 c-25 2 -33 7 -33 21 0 15 8 21 38 24 l37 4 -42 1 -43 2 0
-60z"/>
<path d="M14421 2045 c-1 -56 1 -61 21 -62 29 -3 48 14 48 42 0 27 -24 49 -44
42 -10 -4 -16 2 -19 16 -2 12 -5 -5 -6 -38z m54 -20 c0 -33 -28 -47 -39 -19
-10 25 3 56 22 52 11 -2 17 -13 17 -33z"/>
<path d="M14191 2020 l1 -45 8 39 c4 21 13 42 21 47 10 6 7 8 -9 6 -19 -1 -22
-6 -21 -47z"/>
<path d="M14252 2058 c-28 -28 -1 -88 34 -74 10 4 14 2 11 -6 -2 -7 -16 -12
-31 -11 -14 1 -24 -2 -21 -8 9 -13 39 -11 53 3 7 7 12 33 12 58 0 41 -3 46
-23 48 -13 1 -29 -4 -35 -10z m43 -17 c8 -26 -5 -53 -24 -49 -29 6 -27 68 3
68 8 0 17 -8 21 -19z"/>
<path d="M14342 2058 c-16 -16 -15 -53 3 -68 18 -15 47 -10 53 10 5 13 3 13
-11 1 -18 -14 -47 -9 -47 9 0 5 14 10 30 10 18 0 30 5 30 13 0 16 -20 37 -35
37 -6 0 -16 -5 -23 -12z m46 -15 c2 -8 -6 -13 -22 -13 -19 0 -24 4 -19 15 6
18 34 16 41 -2z"/>
<path d="M14511 2020 c1 -25 3 -36 6 -25 2 11 6 30 9 43 8 40 34 27 34 -18 0
-22 5 -40 10 -40 12 0 13 60 2 78 -5 6 -20 11 -35 10 -25 -2 -27 -5 -26 -48z"/>
<path d="M14603 2025 c0 -27 2 -38 4 -22 2 15 2 37 0 50 -2 12 -4 0 -4 -28z"/>
<path d="M14637 2063 c-15 -14 -6 -33 18 -39 14 -3 25 -13 25 -21 0 -11 -7
-13 -26 -9 -17 5 -23 3 -19 -4 8 -14 38 -13 53 2 19 19 14 28 -18 39 -32 12
-31 34 1 26 11 -3 17 -1 13 4 -6 10 -38 12 -47 2z"/>
<path d="M14718 2013 c6 -2 18 -2 25 0 6 3 1 5 -13 5 -14 0 -19 -2 -12 -5z"/>
<path d="M14282 1850 c1 -54 2 -58 7 -25 4 26 11 40 21 40 10 0 17 -14 21 -40
l7 -40 -2 45 c-1 38 -4 45 -21 45 -11 0 -23 9 -27 20 -3 11 -6 -9 -6 -45z"/>
<path d="M14087 1873 c-15 -14 -6 -34 19 -43 33 -13 21 -34 -15 -25 -19 5 -23
4 -15 -5 17 -17 58 -8 62 12 2 12 -6 21 -22 28 -31 11 -35 35 -6 27 11 -3 20
-1 20 4 0 10 -33 12 -43 2z"/>
<path d="M14163 1835 c0 -27 2 -38 4 -22 2 15 2 37 0 50 -2 12 -4 0 -4 -28z"/>
<path d="M14202 1868 c-27 -27 -7 -78 29 -78 10 0 20 4 23 9 3 4 -5 6 -18 4
-17 -4 -26 0 -30 15 -11 33 3 54 31 47 16 -4 22 -2 18 5 -8 14 -38 13 -53 -2z"/>
<path d="M14372 1868 c-16 -16 -15 -53 3 -68 17 -14 47 -10 53 8 3 11 1 11
-17 0 -18 -11 -23 -11 -31 2 -8 12 -3 16 21 18 25 3 30 7 27 25 -3 25 -37 34
-56 15z m46 -15 c2 -8 -6 -13 -22 -13 -19 0 -24 4 -19 15 6 18 34 16 41 -2z"/>
<path d="M14450 1833 c0 -24 5 -43 10 -43 6 0 10 18 10 39 0 22 5 41 13 44 6
3 2 4 -10 4 -20 -1 -23 -7 -23 -44z"/>
<path d="M14514 1838 c1 -40 3 -43 29 -44 26 -1 27 1 26 45 l-2 46 -6 -40 c-9
-57 -38 -61 -44 -6 l-4 41 1 -42z"/>
<path d="M14601 1831 l2 -46 6 40 c4 26 11 40 21 40 10 0 17 -14 21 -40 l7
-40 -2 45 c-1 42 -3 45 -28 46 -27 1 -28 -1 -27 -45z"/>
<path d="M14692 1868 c-28 -28 -1 -88 34 -74 10 4 14 2 11 -6 -2 -7 -16 -12
-31 -11 -14 1 -24 -2 -21 -8 9 -13 39 -11 53 3 7 7 12 33 12 58 0 41 -3 46
-23 48 -13 1 -29 -4 -35 -10z m43 -17 c8 -26 -5 -53 -24 -49 -29 6 -27 68 3
68 8 0 17 -8 21 -19z"/>
<path d="M1820 1940 l0 -360 970 0 970 0 0 360 0 360 -970 0 -970 0 0 -360z
m1920 0 l0 -340 -950 0 -950 0 0 340 0 340 950 0 950 0 0 -340z"/>
<path d="M2267 1993 c19 -4 23 -12 26 -61 l3 -57 2 57 c2 50 5 57 25 61 12 2
0 4 -28 4 -27 0 -40 -2 -28 -4z"/>
<path d="M2362 1940 c1 -54 2 -58 7 -25 4 26 11 40 21 40 10 0 17 -14 21 -40
l7 -40 -2 45 c-1 38 -4 45 -21 45 -11 0 -23 9 -27 20 -3 11 -6 -9 -6 -45z"/>
<path d="M2840 1940 l0 -60 30 0 c24 0 33 6 40 26 12 32 -3 64 -30 64 -11 0
-20 7 -20 15 0 8 -4 15 -10 15 -6 0 -10 -27 -10 -60z m55 -16 c0 -19 -5 -29
-15 -29 -16 0 -25 28 -16 51 10 25 31 10 31 -22z"/>
<path d="M2930 1940 c0 -33 4 -60 10 -60 6 0 10 27 10 60 0 33 -4 60 -10 60
-6 0 -10 -27 -10 -60z"/>
<path d="M3143 1940 c0 -36 2 -55 4 -42 5 28 19 28 33 1 7 -11 14 -18 17 -16
3 3 -2 16 -11 28 -14 21 -14 24 1 41 9 10 11 18 6 18 -6 0 -17 -7 -24 -17 -13
-15 -15 -13 -20 18 -5 24 -6 16 -6 -31z"/>
<path d="M3284 1978 c-16 -18 -17 -21 -2 -15 14 5 18 -2 21 -41 3 -42 4 -40 5
16 1 34 0 62 -1 62 -2 0 -12 -10 -23 -22z"/>
<path d="M2452 1958 c-16 -16 -15 -53 3 -68 17 -14 47 -10 53 8 3 11 1 11 -17
0 -18 -11 -23 -11 -31 2 -8 12 -3 16 24 20 30 4 33 7 25 28 -9 24 -38 29 -57
10z m46 -15 c2 -8 -6 -13 -22 -13 -19 0 -24 4 -19 15 6 18 34 16 41 -2z"/>
<path d="M2530 1925 c0 -25 5 -45 10 -45 6 0 10 18 10 40 0 29 4 40 15 40 11
0 15 -11 15 -40 0 -22 5 -40 10 -40 6 0 10 18 10 40 0 29 4 40 15 40 11 0 15
-11 15 -40 0 -22 5 -40 10 -40 11 0 13 33 4 66 -5 19 -13 22 -60 23 l-54 0 0
-44z"/>
<path d="M2669 1949 c-24 -46 29 -93 61 -54 8 9 8 15 2 15 -6 0 -12 -5 -14
-12 -5 -14 -38 -4 -38 12 0 5 14 10 30 10 33 0 35 3 20 31 -14 25 -46 24 -61
-2z m51 -4 c0 -8 -9 -15 -20 -15 -20 0 -26 11 -13 23 12 13 33 7 33 -8z"/>
<path d="M2761 1921 l2 -46 6 40 c4 26 11 40 21 40 10 0 17 -14 21 -40 l7 -40
-2 45 c-1 42 -3 45 -28 46 -27 1 -28 -1 -27 -45z"/>
<path d="M2977 1963 c-14 -14 -7 -74 9 -80 37 -14 70 41 44 73 -13 15 -42 19
-53 7z m48 -22 c8 -26 -5 -53 -24 -49 -29 6 -27 68 3 68 8 0 17 -8 21 -19z"/>
<path d="M3060 1944 c-7 -17 -7 -32 0 -45 11 -19 44 -26 54 -11 3 5 -5 8 -17
8 -18 -1 -22 5 -22 29 0 24 4 30 22 29 12 0 20 3 17 8 -11 18 -45 7 -54 -18z"/>
<path d="M3910 1940 l0 -360 955 0 955 0 0 360 0 360 -955 0 -955 0 0 -360z
m1890 0 l0 -340 -935 0 -935 0 0 340 0 340 935 0 935 0 0 -340z"/>
<path d="M4337 1993 c19 -4 23 -12 26 -61 l3 -57 2 57 c2 50 5 57 25 61 12 2
0 4 -28 4 -27 0 -40 -2 -28 -4z"/>
<path d="M4432 1940 c1 -53 2 -58 7 -25 8 56 38 61 44 8 l4 -38 -1 40 c-1 33
-4 40 -21 40 -11 0 -23 9 -27 20 -3 11 -6 -9 -6 -45z"/>
<path d="M4921 1945 c-1 -58 0 -61 24 -63 18 -1 29 5 36 22 15 31 -5 70 -31
63 -13 -3 -20 1 -23 17 -2 11 -5 -6 -6 -39z m44 -21 c0 -19 -5 -29 -15 -29
-16 0 -25 28 -16 51 10 25 31 10 31 -22z"/>
<path d="M5013 1940 c0 -36 2 -50 4 -32 2 17 2 47 0 65 -2 17 -4 3 -4 -33z"/>
<path d="M5213 1940 c0 -36 2 -55 4 -42 5 27 19 28 33 2 6 -11 15 -20 21 -20
6 0 1 13 -10 28 -19 27 -19 30 -3 45 11 11 12 17 4 17 -7 0 -15 -7 -18 -15
-10 -25 -23 -17 -27 18 -2 17 -4 3 -4 -33z"/>
<path d="M5337 1994 c-14 -14 -7 -26 8 -14 16 13 45 7 45 -9 0 -6 -13 -26 -30
-44 -16 -19 -30 -37 -30 -41 0 -3 17 -5 38 -5 30 2 32 3 9 6 l-28 4 26 31 c32
38 30 72 -5 76 -14 2 -29 0 -33 -4z"/>
<path d="M4518 1944 c-21 -45 31 -87 62 -49 7 9 8 15 2 15 -6 0 -12 -5 -14
-12 -5 -14 -38 -4 -38 12 0 5 14 10 30 10 33 0 35 3 20 31 -15 27 -48 24 -62
-7z m50 -2 c2 -7 -6 -12 -17 -12 -21 0 -27 11 -14 24 9 9 26 2 31 -12z"/>
<path d="M4600 1923 c0 -52 18 -58 22 -6 4 52 28 56 28 4 0 -23 5 -41 10 -41
6 0 10 18 10 40 0 29 4 40 15 40 11 0 15 -11 15 -40 0 -22 5 -40 10 -40 12 0
13 59 2 77 -4 6 -30 11 -59 10 l-53 0 0 -44z"/>
<path d="M4740 1944 c-19 -48 28 -87 60 -49 8 9 8 15 2 15 -6 0 -12 -5 -14
-12 -5 -14 -38 -4 -38 12 0 5 14 10 30 10 31 0 39 17 18 38 -20 20 -48 14 -58
-14z m54 1 c4 -11 -1 -15 -19 -15 -24 0 -32 10 -18 23 11 12 31 8 37 -8z"/>
<path d="M4831 1921 l2 -46 6 40 c4 26 12 41 23 43 13 3 18 -6 21 -40 l4 -43
-1 45 c-1 42 -3 45 -28 46 -27 1 -28 -1 -27 -45z"/>
<path d="M5047 1963 c-14 -14 -7 -74 9 -80 37 -14 70 41 44 73 -13 15 -42 19
-53 7z m48 -22 c8 -26 -5 -53 -24 -49 -29 6 -27 68 3 68 8 0 17 -8 21 -19z"/>
<path d="M5137 1963 c-4 -3 -7 -21 -7 -40 0 -38 19 -51 53 -35 20 10 20 10 -8
9 -27 -2 -30 1 -30 28 0 24 4 30 22 29 12 0 20 3 17 8 -6 10 -38 11 -47 1z"/>
<path d="M350 1930 l0 -360 535 0 535 0 0 360 0 360 -535 0 -535 0 0 -360z
m1050 0 l0 -340 -515 0 -515 0 0 340 0 340 515 0 515 0 0 -340z"/>
<path d="M510 1930 l0 -60 48 2 47 1 -42 4 c-38 4 -43 7 -43 28 0 20 6 24 38
28 l37 4 -37 1 c-30 2 -38 6 -38 21 0 15 8 21 38 24 l37 4 -42 1 -43 2 0 -60z"/>
<path d="M743 1976 c-11 -19 -4 -106 8 -106 8 0 15 67 10 94 -1 5 4 13 11 17
10 7 9 9 -4 9 -9 0 -21 -7 -25 -14z"/>
<path d="M870 1930 c0 -33 4 -60 10 -60 6 0 10 18 10 41 0 33 3 40 18 37 11
-2 19 -16 23 -43 l7 -40 -2 45 c-1 39 -4 45 -23 48 -13 2 -23 10 -23 18 0 8
-4 14 -10 14 -6 0 -10 -27 -10 -60z"/>
<path d="M623 1915 c0 -27 2 -38 4 -22 2 15 2 37 0 50 -2 12 -4 0 -4 -28z"/>
<path d="M651 1910 c1 -25 3 -36 6 -25 2 11 6 30 9 43 8 40 34 27 34 -18 0
-22 5 -40 10 -40 12 0 13 60 2 78 -5 6 -20 11 -35 10 -25 -2 -27 -5 -26 -48z"/>
<path d="M780 1928 c0 -45 11 -59 43 -56 25 2 27 5 26 48 l-2 45 -6 -40 c-4
-27 -12 -41 -23 -43 -15 -3 -18 4 -18 37 0 23 -4 41 -10 41 -5 0 -10 -15 -10
-32z"/>
<path d="M960 1913 c0 -24 5 -43 10 -43 6 0 10 18 10 39 0 22 5 41 13 44 6 3
2 4 -10 4 -20 -1 -23 -7 -23 -44z"/>
<path d="M1024 1918 c1 -40 3 -43 29 -44 26 -1 27 1 26 45 l-2 46 -6 -40 c-9
-57 -38 -61 -44 -6 l-4 41 1 -42z"/>
<path d="M1100 1914 c0 -54 18 -59 22 -6 4 52 31 50 39 -3 l7 -40 -2 45 c-1
43 -2 45 -33 47 -33 1 -33 1 -33 -43z"/>
<path d="M1194 1946 c-3 -8 -4 -27 -2 -43 2 -20 9 -29 26 -31 12 -2 22 -8 22
-14 0 -6 -11 -8 -25 -6 -13 3 -22 1 -19 -3 8 -13 38 -11 52 3 7 7 12 33 12 58
0 44 -1 46 -30 48 -19 1 -33 -3 -36 -12z m49 -17 c8 -29 -2 -51 -22 -47 -29 6
-27 68 3 68 7 0 16 -9 19 -21z"/>
<path d="M9460 1930 l0 -360 445 0 445 0 0 360 0 360 -445 0 -445 0 0 -360z
m870 0 l0 -340 -425 0 -425 0 0 340 0 340 425 0 425 0 0 -340z"/>
<path d="M9607 2073 c19 -4 23 -12 26 -61 l3 -57 2 57 c2 50 5 57 25 61 12 2
0 4 -28 4 -27 0 -40 -2 -28 -4z"/>
<path d="M9702 2020 c1 -54 2 -58 7 -25 4 26 11 40 21 40 10 0 17 -14 21 -40
l7 -40 -2 45 c-1 38 -4 45 -21 45 -11 0 -23 9 -27 20 -3 11 -6 -9 -6 -45z"/>
<path d="M9792 2038 c-16 -16 -15 -53 3 -68 17 -14 47 -10 53 8 3 11 1 11 -17
0 -18 -11 -23 -11 -31 2 -8 12 -3 16 21 18 25 3 30 7 27 25 -3 25 -37 34 -56
15z m46 -15 c2 -8 -6 -13 -22 -13 -19 0 -24 4 -19 15 6 18 34 16 41 -2z"/>
<path d="M9870 2004 c0 -24 5 -44 10 -44 6 0 10 18 10 40 0 29 4 40 15 40 11
0 15 -12 16 -42 1 -24 3 -34 6 -23 2 11 6 30 9 43 8 39 32 26 37 -20 l4 -43
-1 45 -1 45 -52 1 -53 1 0 -43z"/>
<path d="M10012 2038 c-16 -16 -15 -53 3 -68 17 -14 47 -10 53 8 3 11 1 11
-17 0 -18 -11 -23 -11 -31 2 -8 12 -3 16 24 20 30 4 33 7 25 28 -9 24 -38 29
-57 10z m46 -15 c2 -8 -6 -13 -22 -13 -19 0 -24 4 -19 15 6 18 34 16 41 -2z"/>
<path d="M10101 2001 l2 -46 6 40 c4 26 11 40 21 40 10 0 17 -14 21 -40 l7
-40 -2 45 c-1 42 -3 45 -28 46 -27 1 -28 -1 -27 -45z"/>
<path d="M10188 1993 c6 -2 18 -2 25 0 6 3 1 5 -13 5 -14 0 -19 -2 -12 -5z"/>
<path d="M9621 1835 c-1 -56 1 -61 21 -62 29 -3 48 14 48 42 0 27 -24 49 -44
42 -10 -4 -16 2 -19 16 -2 12 -5 -5 -6 -38z m54 -4 c8 -26 -5 -53 -24 -49 -29
6 -27 68 3 68 8 0 17 -8 21 -19z"/>
<path d="M9713 1830 c0 -36 2 -50 4 -32 2 17 2 47 0 65 -2 17 -4 3 -4 -33z"/>
<path d="M9910 1830 c0 -33 4 -60 10 -60 6 0 10 10 10 23 l1 22 18 -22 c27
-32 33 -28 13 7 -16 30 -16 32 2 45 11 8 16 15 11 15 -5 0 -17 -7 -27 -17 -17
-15 -18 -14 -18 15 0 18 -4 32 -10 32 -6 0 -10 -27 -10 -60z"/>
<path d="M10047 1883 c-4 -3 -7 -16 -7 -28 0 -16 6 -21 23 -21 28 1 37 -41 11
-51 -10 -4 -19 -2 -22 5 -2 7 -8 12 -14 12 -6 0 -6 -6 2 -15 30 -36 83 3 60
45 -6 11 -20 20 -31 20 -28 0 -19 23 12 31 l24 7 -26 1 c-14 1 -29 -2 -32 -6z"/>
<path d="M9752 1848 c-29 -29 -4 -84 35 -76 28 5 26 82 -2 86 -11 1 -26 -3
-33 -10z m43 -33 c0 -33 -28 -47 -39 -19 -10 25 3 56 22 52 11 -2 17 -13 17
-33z"/>
<path d="M9842 1848 c-27 -27 -7 -78 29 -78 10 0 20 4 24 9 3 6 -7 9 -22 8
-25 -2 -28 1 -28 28 0 27 3 30 28 28 15 -1 25 2 22 8 -9 13 -39 11 -53 -3z"/>
<path d="M10130 1845 c-7 -9 -8 -15 -2 -15 6 0 12 5 14 12 3 7 11 9 24 4 17
-8 15 -10 -14 -23 -45 -19 -40 -47 9 -49 l35 -2 -5 42 c-5 32 -11 42 -27 44
-11 2 -27 -4 -34 -13z m50 -40 c0 -19 -24 -30 -41 -19 -9 5 -7 11 6 21 24 17
35 17 35 -2z"/>
<path d="M10440 1930 l0 -360 440 0 440 0 0 360 0 360 -440 0 -440 0 0 -360z
m860 0 l0 -340 -420 0 -420 0 0 340 0 340 420 0 420 0 0 -340z"/>
<path d="M10577 2073 c19 -4 23 -12 26 -61 l3 -57 2 57 c2 50 5 57 25 61 12 2
0 4 -28 4 -27 0 -40 -2 -28 -4z"/>
<path d="M10672 2020 c1 -54 2 -58 7 -25 4 26 11 40 21 40 10 0 17 -14 21 -40
l7 -40 -2 45 c-1 38 -4 45 -21 45 -11 0 -23 9 -27 20 -3 11 -6 -9 -6 -45z"/>
<path d="M10762 2038 c-16 -16 -15 -53 3 -68 17 -14 47 -10 53 8 3 11 1 11
-17 0 -18 -11 -23 -11 -31 2 -8 12 -3 16 24 20 30 4 33 7 25 28 -9 24 -38 29
-57 10z m46 -15 c2 -8 -6 -13 -22 -13 -19 0 -24 4 -19 15 6 18 34 16 41 -2z"/>
<path d="M10840 2005 c0 -25 5 -45 10 -45 6 0 10 18 10 40 0 29 4 40 15 40 11
0 15 -11 15 -40 0 -22 5 -40 10 -40 6 0 10 18 10 40 0 29 4 40 15 40 11 0 15
-11 15 -40 0 -22 5 -40 10 -40 11 0 13 33 4 66 -5 19 -13 22 -60 23 l-54 0 0
-44z"/>
<path d="M10979 2029 c-24 -46 29 -93 61 -54 8 9 8 15 2 15 -6 0 -12 -5 -14
-12 -5 -14 -38 -4 -38 12 0 5 14 10 30 10 33 0 35 3 20 31 -14 25 -46 24 -61
-2z m51 -4 c0 -8 -9 -15 -20 -15 -20 0 -26 11 -13 23 12 13 33 7 33 -8z"/>
<path d="M11071 2001 l2 -46 6 40 c4 26 11 40 21 40 10 0 17 -14 21 -40 l7
-40 -2 45 c-1 42 -3 45 -28 46 -27 1 -28 -1 -27 -45z"/>
<path d="M11158 1993 c6 -2 18 -2 25 0 6 3 1 5 -13 5 -14 0 -19 -2 -12 -5z"/>
<path d="M10591 1835 c-1 -56 1 -61 21 -62 29 -3 48 14 48 42 0 27 -24 49 -44
42 -10 -4 -16 2 -19 16 -2 12 -5 -5 -6 -38z m54 -20 c0 -33 -28 -47 -39 -19
-10 25 3 56 22 52 11 -2 17 -13 17 -33z"/>
<path d="M10683 1830 c0 -36 2 -50 4 -32 2 17 2 47 0 65 -2 17 -4 3 -4 -33z"/>
<path d="M10880 1830 c0 -33 4 -60 10 -60 6 0 10 10 10 23 l1 22 18 -22 c27
-33 35 -28 14 8 -17 30 -17 31 1 45 11 8 16 14 11 14 -5 0 -17 -7 -27 -17 -17
-15 -18 -14 -18 15 0 18 -4 32 -10 32 -6 0 -10 -27 -10 -60z"/>
<path d="M11016 1874 c-12 -32 -7 -45 18 -38 25 6 40 -14 30 -41 -7 -18 -25
-19 -43 -2 -11 10 -13 9 -9 -3 6 -21 48 -19 62 3 14 22 -2 49 -32 57 -25 6
-17 25 13 33 16 4 15 5 -6 6 -16 1 -29 -5 -33 -15z"/>
<path d="M11101 1834 c-1 -60 -1 -61 26 -60 20 1 30 8 37 28 11 32 -8 62 -35
55 -12 -3 -19 2 -22 17 -2 11 -5 -6 -6 -40z m47 -16 c-3 -36 -30 -46 -36 -15
-5 26 5 47 23 47 12 0 15 -8 13 -32z"/>
<path d="M10722 1848 c-7 -7 -12 -21 -12 -33 0 -46 53 -62 71 -21 21 45 -26
87 -59 54z m43 -33 c0 -33 -28 -47 -39 -19 -10 25 3 56 22 52 11 -2 17 -13 17
-33z"/>
<path d="M10812 1848 c-27 -27 -7 -78 29 -78 10 0 21 5 24 10 4 7 -2 9 -18 5
-28 -7 -42 14 -31 47 4 15 12 18 31 13 16 -4 22 -2 18 5 -8 14 -38 13 -53 -2z"/>
<path d="M11580 1930 l0 -360 455 0 455 0 0 360 0 360 -455 0 -455 0 0 -360z
m890 0 l0 -340 -435 0 -435 0 0 340 0 340 435 0 435 0 0 -340z"/>
<path d="M11710 1931 c0 -34 4 -61 10 -61 6 0 10 11 10 25 0 15 6 25 14 25 8
0 23 -11 34 -25 25 -32 39 -33 19 -1 -11 16 -12 27 -6 33 6 6 9 21 7 34 -2 20
-10 24 -45 27 l-43 3 0 -60z m75 24 c0 -14 -8 -21 -27 -23 -24 -3 -28 0 -28
23 0 23 4 26 28 23 19 -2 27 -9 27 -23z"/>
<path d="M11922 1973 c-4 -10 -5 -38 -1 -63 l6 -45 1 43 c1 26 7 42 15 42 8 0
7 4 -3 10 -13 9 -13 11 0 20 9 6 11 10 3 10 -7 0 -16 -8 -21 -17z"/>
<path d="M11960 1930 c0 -33 4 -60 10 -60 6 0 10 27 10 60 0 33 -4 60 -10 60
-6 0 -10 -27 -10 -60z"/>
<path d="M11829 1939 c-24 -46 29 -93 61 -54 8 9 8 15 2 15 -6 0 -12 -5 -14
-12 -5 -14 -38 -4 -38 12 0 5 14 10 30 10 33 0 35 3 20 31 -14 25 -46 24 -61
-2z m51 -4 c0 -8 -9 -15 -20 -15 -20 0 -26 11 -13 23 12 13 33 7 33 -8z"/>
<path d="M11998 1934 c-21 -45 31 -87 62 -49 7 9 8 15 2 15 -6 0 -12 -5 -14
-12 -5 -14 -38 -4 -38 12 0 5 14 10 30 10 33 0 35 3 20 31 -15 27 -48 24 -62
-7z m50 -2 c2 -7 -6 -12 -17 -12 -21 0 -27 11 -14 24 9 9 26 2 31 -12z"/>
<path d="M12093 1937 c13 -20 13 -26 1 -42 -8 -10 -12 -21 -9 -24 3 -2 12 4
19 15 14 18 15 18 21 2 4 -10 12 -18 17 -18 6 0 3 11 -5 24 -14 21 -14 26 -1
45 8 11 11 21 6 21 -6 0 -13 -8 -17 -17 -6 -17 -7 -17 -19 0 -19 25 -31 21
-13 -6z"/>
<path d="M12173 1915 c0 -27 2 -38 4 -22 2 15 2 37 0 50 -2 12 -4 0 -4 -28z"/>
<path d="M12213 1953 c-7 -2 -13 -20 -13 -38 0 -25 5 -35 20 -40 26 -8 50 11
50 39 0 36 -25 53 -57 39z m42 -38 c0 -23 -4 -30 -20 -30 -21 0 -31 25 -21 51
11 28 41 12 41 -21z"/>
<path d="M12291 1910 c1 -25 3 -36 6 -25 2 11 6 30 9 43 8 40 34 27 34 -18 0
-22 5 -40 10 -40 12 0 13 60 2 78 -5 6 -20 11 -35 10 -25 -2 -27 -5 -26 -48z"/>
<path d="M12540 1930 l0 -360 535 0 535 0 0 360 0 360 -535 0 -535 0 0 -360z
m1050 0 l0 -340 -515 0 -515 0 0 340 0 340 515 0 515 0 0 -340z"/>
<path d="M12661 2018 c1 -35 4 -51 6 -36 3 22 10 27 35 30 66 6 58 68 -8 68
l-34 0 1 -62z m69 27 c0 -21 -5 -25 -30 -25 -25 0 -30 4 -30 25 0 21 5 25 30
25 25 0 30 -4 30 -25z"/>
<path d="M12913 2066 c-11 -19 -4 -106 8 -106 8 0 15 67 10 94 -1 5 4 13 11
17 10 7 9 9 -4 9 -9 0 -21 -7 -25 -14z"/>
<path d="M12772 2003 l1 -48 4 42 c3 29 9 43 21 46 12 3 11 5 -5 6 -21 1 -23
-3 -21 -46z"/>
<path d="M12824 2010 c1 -43 2 -45 34 -47 32 -1 32 -1 32 43 0 54 -18 59 -22
7 -4 -53 -31 -51 -39 2 l-7 40 2 -45z"/>
<path d="M12952 2008 c3 -40 5 -43 36 -46 32 -3 32 -3 32 42 0 25 -4 46 -10
46 -5 0 -10 -18 -10 -40 0 -29 -4 -40 -15 -40 -11 0 -15 11 -15 40 0 22 -5 40
-11 40 -6 0 -9 -17 -7 -42z"/>
<path d="M13041 2000 c1 -25 3 -36 6 -25 2 11 6 30 9 43 8 40 34 27 34 -18 0
-22 5 -40 10 -40 12 0 13 60 2 78 -5 6 -20 11 -35 10 -25 -2 -27 -5 -26 -48z"/>
<path d="M13129 2029 c-16 -31 4 -73 32 -66 13 3 19 1 16 -6 -2 -7 -14 -12
-26 -11 -11 0 -21 -3 -21 -8 0 -5 12 -8 28 -6 25 3 27 6 30 58 3 53 2 56 -22
58 -17 1 -29 -5 -37 -19z m46 -25 c0 -19 -5 -29 -15 -29 -16 0 -25 28 -16 51
10 25 31 10 31 -22z"/>
<path d="M13227 2043 c-15 -14 -6 -34 19 -43 33 -13 21 -34 -15 -25 -19 5 -23
4 -15 -5 17 -17 58 -8 62 12 2 12 -6 21 -22 28 -31 11 -35 35 -6 27 11 -3 20
-1 20 4 0 10 -33 12 -43 2z"/>
<path d="M13307 2005 c8 -25 18 -45 22 -45 9 0 35 80 28 86 -3 3 -10 -10 -17
-28 l-13 -33 -10 33 c-5 17 -13 32 -18 32 -4 0 -1 -20 8 -45z"/>
<path d="M13379 2029 c-8 -16 -8 -28 0 -45 18 -41 71 -25 71 21 0 44 -50 61
-71 24z m56 -8 c8 -26 -5 -53 -24 -49 -29 6 -27 68 3 68 8 0 17 -8 21 -19z"/>
<path d="M13472 2000 c1 -40 2 -41 5 -10 2 19 11 40 20 47 13 10 13 12 -6 10
-18 -1 -21 -7 -19 -47z"/>
<path d="M12671 1834 c-1 -60 -1 -61 26 -60 20 1 30 8 37 28 11 32 -8 62 -35
55 -12 -3 -19 2 -22 17 -2 11 -5 -6 -6 -40z m47 -16 c-3 -36 -30 -46 -36 -15
-5 26 5 47 23 47 12 0 15 -8 13 -32z"/>
<path d="M13022 1873 c-9 -19 4 -103 16 -103 8 0 6 109 -2 117 -2 3 -9 -4 -14
-14z"/>
<path d="M12758 1834 c-21 -45 31 -87 62 -49 7 9 8 15 2 15 -6 0 -12 -5 -14
-12 -5 -14 -38 -4 -38 12 0 5 14 10 30 10 33 0 35 3 20 31 -15 27 -48 24 -62
-7z m50 -2 c2 -7 -6 -12 -17 -12 -21 0 -27 11 -14 24 9 9 26 2 31 -12z"/>
<path d="M12852 1813 l1 -48 4 42 c3 29 9 43 21 46 12 3 11 5 -5 6 -21 1 -23
-3 -21 -46z"/>
<path d="M12900 1834 c-19 -48 28 -87 60 -49 8 9 8 15 2 15 -6 0 -12 -5 -14
-12 -5 -14 -38 -4 -38 12 0 5 14 10 30 10 31 0 39 17 18 38 -20 20 -48 14 -58
-14z m54 1 c4 -11 -1 -15 -19 -15 -24 0 -32 10 -18 23 11 12 31 8 37 -8z"/>
<path d="M12993 1815 c0 -27 2 -38 4 -22 2 15 2 37 0 50 -2 12 -4 0 -4 -28z"/>
<path d="M13074 1820 c1 -42 3 -45 29 -46 26 -1 27 1 26 45 l-2 46 -6 -40 c-4
-26 -11 -40 -21 -40 -10 0 -17 14 -21 40 l-7 40 2 -45z"/>
<path d="M13161 1811 l2 -46 6 40 c4 26 11 40 21 40 10 0 17 -14 21 -40 l7
-40 -2 45 c-1 42 -3 45 -28 46 -27 1 -28 -1 -27 -45z"/>
<path d="M13252 1848 c-28 -28 -1 -88 34 -74 10 4 14 2 11 -6 -2 -7 -16 -12
-31 -11 -14 1 -24 -2 -21 -8 9 -13 39 -11 53 3 7 7 12 33 12 58 0 41 -3 46
-23 48 -13 1 -29 -4 -35 -10z m44 -22 c7 -28 -1 -46 -21 -46 -17 0 -27 27 -20
51 9 27 34 23 41 -5z"/>
<path d="M13342 1848 c-16 -16 -15 -53 3 -68 17 -14 47 -10 53 8 3 11 1 11
-17 0 -18 -11 -23 -11 -31 2 -8 12 -3 16 21 18 25 3 30 7 27 25 -3 25 -37 34
-56 15z m46 -15 c2 -8 -6 -13 -22 -13 -19 0 -24 4 -19 15 6 18 34 16 41 -2z"/>
<path d="M13420 1816 c0 -25 5 -46 10 -46 6 0 10 18 10 41 0 33 3 40 18 37 11
-2 19 -16 23 -43 l7 -40 -2 45 c-1 43 -2 45 -33 48 -33 3 -33 3 -33 -42z"/>
<path d="M109 1223 c10 -26 23 -49 29 -51 5 -1 17 18 26 44 19 56 19 54 7 54
-5 0 -14 -15 -21 -32 l-12 -33 -14 33 c-22 51 -36 37 -15 -15z"/>
<path d="M335 1261 c-3 -6 -19 -11 -36 -11 -27 0 -29 -2 -29 -40 0 -22 5 -40
10 -40 6 0 10 13 10 29 0 16 6 31 14 34 19 8 26 -1 26 -35 0 -17 5 -28 13 -28
10 0 13 13 12 45 -2 48 -9 63 -20 46z"/>
<path d="M645 1260 c-3 -5 -3 -15 0 -20 4 -6 1 -17 -5 -25 -18 -22 5 -45 44
-43 28 1 32 4 28 24 -2 13 -7 23 -11 22 -18 -2 -22 4 -11 17 6 8 9 19 5 25 -8
13 -42 13 -50 0z m35 -10 c0 -5 -4 -10 -10 -10 -5 0 -10 5 -10 10 0 6 5 10 10
10 6 0 10 -4 10 -10z m-2 -58 c2 -7 -3 -12 -12 -12 -9 0 -16 7 -16 16 0 17 22
14 28 -4z"/>
<path d="M780 1220 c0 -48 1 -50 28 -50 35 0 52 16 52 50 0 34 -17 50 -52 50
-27 0 -28 -2 -28 -50z m60 0 c0 -23 -4 -30 -20 -30 -16 0 -20 7 -20 30 0 23 4
30 20 30 16 0 20 -7 20 -30z"/>
<path d="M1000 1220 c0 -27 5 -50 10 -50 6 0 10 7 10 17 0 14 2 14 20 -2 22
-20 26 -14 9 16 -7 15 -7 24 2 35 14 17 -2 19 -19 2 -9 -9 -12 -7 -12 10 0 12
-4 22 -10 22 -5 0 -10 -22 -10 -50z"/>
<path d="M13700 1223 c10 -26 22 -49 27 -50 9 -3 43 69 43 90 0 20 -19 3 -25
-23 -4 -16 -10 -30 -15 -30 -5 0 -11 14 -15 30 -4 17 -13 30 -20 30 -10 0 -9
-10 5 -47z"/>
<path d="M13925 1261 c-3 -6 -19 -11 -36 -11 -27 0 -29 -2 -29 -40 0 -45 17
-55 22 -13 2 17 10 29 21 31 13 3 17 -3 17 -27 0 -19 5 -31 13 -31 10 0 13 13
12 45 -2 48 -9 63 -20 46z"/>
<path d="M14240 1247 c0 -13 -5 -28 -12 -35 -18 -18 9 -42 48 -40 28 1 33 5
30 22 -2 12 -8 22 -14 22 -25 3 -27 5 -13 13 19 12 6 41 -19 41 -14 0 -20 -7
-20 -23z m30 3 c0 -5 -2 -10 -4 -10 -3 0 -8 5 -11 10 -3 6 -1 10 4 10 6 0 11
-4 11 -10z m-2 -59 c3 -8 -1 -12 -9 -9 -7 2 -15 10 -17 17 -3 8 1 12 9 9 7 -2
15 -10 17 -17z"/>
<path d="M14370 1220 c0 -48 1 -50 28 -50 35 0 52 16 52 50 0 34 -17 50 -52
50 -27 0 -28 -2 -28 -50z m60 0 c0 -23 -4 -30 -20 -30 -16 0 -20 7 -20 30 0
23 4 30 20 30 16 0 20 -7 20 -30z"/>
<path d="M14590 1220 c0 -27 5 -50 10 -50 6 0 10 7 10 17 0 14 2 14 20 -2 22
-20 26 -14 9 16 -7 15 -7 24 2 35 14 17 -2 19 -19 2 -9 -9 -12 -7 -12 10 0 12
-4 22 -10 22 -5 0 -10 -22 -10 -50z"/>
<path d="M192 1238 c-27 -27 -3 -73 35 -66 27 5 25 72 -2 76 -11 1 -26 -3 -33
-10z m43 -28 c0 -8 -8 -16 -17 -18 -13 -2 -18 3 -18 18 0 15 5 20 18 18 9 -2
17 -10 17 -18z"/>
<path d="M381 1208 c2 -31 3 -35 6 -15 3 16 11 31 19 34 21 8 17 23 -6 23 -17
0 -20 -6 -19 -42z"/>
<path d="M435 1241 c-3 -7 3 -11 17 -12 l23 0 -22 -11 c-35 -17 -30 -47 8 -46
28 1 30 3 27 37 -2 28 -8 37 -25 39 -11 2 -24 -2 -28 -7z m35 -41 c0 -5 -4
-10 -10 -10 -5 0 -10 5 -10 10 0 6 5 10 10 10 6 0 10 -4 10 -10z"/>
<path d="M514 1236 c-3 -7 -3 -30 -2 -52 3 -32 8 -40 26 -42 25 -4 42 28 42
77 0 24 -4 28 -31 29 -16 0 -32 -5 -35 -12z m42 -17 c10 -17 -13 -36 -27 -22
-12 12 -4 33 11 33 5 0 12 -5 16 -11z m-1 -49 c-3 -5 -12 -10 -18 -10 -7 0 -6
4 3 10 19 12 23 12 15 0z"/>
<path d="M880 1210 c0 -22 5 -40 10 -40 6 0 10 18 10 40 0 22 -4 40 -10 40 -5
0 -10 -18 -10 -40z"/>
<path d="M927 1243 c-14 -13 -6 -32 16 -39 l22 -8 -25 -6 c-21 -6 -23 -8 -7
-15 9 -4 24 -5 32 -1 22 8 18 35 -7 46 l-23 9 23 0 c13 1 20 5 17 11 -7 11
-38 13 -48 3z"/>
<path d="M1082 1213 c3 -34 6 -38 31 -39 25 -1 27 1 26 40 -1 37 -2 38 -8 12
-9 -41 -31 -46 -31 -7 0 17 -5 31 -11 31 -6 0 -9 -16 -7 -37z"/>
<path d="M1165 1240 c-9 -14 13 -40 34 -41 9 -1 3 -5 -14 -9 -26 -6 -28 -8
-11 -15 20 -9 47 3 48 20 0 6 -10 16 -23 22 l-24 13 23 0 c13 0 20 4 17 10 -8
13 -42 13 -50 0z"/>
<path d="M1245 1240 c-9 -14 13 -40 34 -41 9 -1 3 -5 -14 -9 -25 -6 -27 -8
-12 -14 9 -5 24 -6 32 -2 22 8 18 35 -7 46 l-23 9 23 0 c13 1 20 5 17 11 -8
13 -42 13 -50 0z"/>
<path d="M1320 1210 c0 -22 5 -40 10 -40 6 0 10 18 10 40 0 22 -4 40 -10 40
-5 0 -10 -18 -10 -40z"/>
<path d="M1370 1235 c-26 -31 13 -82 44 -56 21 17 21 57 0 65 -23 9 -30 8 -44
-9z m40 -25 c0 -11 -7 -20 -15 -20 -8 0 -15 9 -15 20 0 11 7 20 15 20 8 0 15
-9 15 -20z"/>
<path d="M1450 1208 c0 -21 5 -38 10 -38 6 0 10 14 10 31 0 38 24 35 28 -4 4
-30 22 -38 22 -9 0 44 -12 61 -41 60 -27 -1 -29 -4 -29 -40z"/>
<path d="M6065 1238 c-3 -7 -4 -171 -3 -363 l3 -350 405 0 405 0 0 360 0 360
-403 3 c-318 2 -404 0 -407 -10z m805 -353 l0 -355 -400 0 -400 0 0 355 0 355
400 0 400 0 0 -355z"/>
<path d="M7285 1238 c-3 -7 -4 -171 -3 -363 l3 -350 405 0 405 0 0 360 0 360
-403 3 c-318 2 -404 0 -407 -10z m805 -353 l0 -355 -400 0 -400 0 0 355 0 355
400 0 400 0 0 -355z"/>
<path d="M8245 1238 c-3 -7 -4 -168 -3 -358 l3 -345 405 0 405 0 0 355 0 355
-403 3 c-318 2 -404 0 -407 -10z m805 -348 l0 -350 -400 0 -400 0 0 350 0 350
400 0 400 0 0 -350z"/>
<path d="M9515 1238 c-3 -7 -4 -168 -3 -358 l3 -345 405 0 405 0 0 355 0 355
-403 3 c-318 2 -404 0 -407 -10z m805 -348 l0 -350 -400 0 -400 0 0 350 0 350
400 0 400 0 0 -350z"/>
<path d="M10455 1238 c-3 -7 -4 -168 -3 -358 l3 -345 405 0 405 0 0 355 0 355
-403 3 c-318 2 -404 0 -407 -10z m805 -348 l0 -350 -400 0 -400 0 0 350 0 350
400 0 400 0 0 -350z"/>
<path d="M13782 1238 c-25 -25 -6 -68 30 -68 9 0 22 9 28 20 22 40 -26 80 -58
48z m44 -19 c10 -17 -13 -36 -27 -22 -12 12 -4 33 11 33 5 0 12 -5 16 -11z"/>
<path d="M13970 1210 c0 -22 5 -40 10 -40 6 0 10 14 10 30 0 17 5 30 10 30 6
0 10 5 10 10 0 6 -9 10 -20 10 -17 0 -20 -7 -20 -40z"/>
<path d="M14025 1241 c-3 -7 3 -11 17 -12 l23 0 -22 -11 c-35 -17 -30 -47 8
-46 28 1 30 3 27 37 -2 28 -8 37 -25 39 -11 2 -24 -2 -28 -7z m35 -41 c0 -5
-4 -10 -10 -10 -5 0 -10 5 -10 10 0 6 5 10 10 10 6 0 10 -4 10 -10z"/>
<path d="M14104 1236 c-3 -7 -3 -30 -2 -52 3 -32 8 -40 26 -42 25 -4 42 28 42
77 0 24 -4 28 -31 29 -16 0 -32 -5 -35 -12z m42 -17 c10 -17 -13 -36 -27 -22
-12 12 -4 33 11 33 5 0 12 -5 16 -11z m-1 -49 c-3 -5 -12 -10 -18 -10 -7 0 -6
4 3 10 19 12 23 12 15 0z"/>
<path d="M14470 1210 c0 -22 5 -40 10 -40 6 0 10 18 10 40 0 22 -4 40 -10 40
-5 0 -10 -18 -10 -40z"/>
<path d="M14517 1243 c-14 -13 -6 -32 16 -39 l22 -8 -25 -6 c-21 -6 -23 -8 -7
-15 9 -4 24 -5 32 -1 22 8 18 35 -7 46 l-23 9 23 0 c13 1 20 5 17 11 -7 11
-38 13 -48 3z"/>
<path d="M14672 1213 c3 -34 6 -38 31 -39 25 -1 27 1 26 40 -1 37 -2 38 -8 12
-9 -41 -31 -46 -31 -7 0 17 -5 31 -11 31 -6 0 -9 -16 -7 -37z"/>
<path d="M14756 1235 c-3 -9 5 -20 22 -29 l27 -15 -28 -1 c-16 0 -26 -4 -22
-10 9 -15 52 -12 58 4 6 15 -6 29 -33 39 -10 3 -7 6 8 6 13 1 20 5 17 11 -9
15 -42 12 -49 -5z"/>
<path d="M14835 1240 c-9 -14 13 -40 34 -41 9 -1 3 -5 -14 -9 -26 -6 -28 -8
-11 -15 20 -9 47 3 48 20 0 6 -10 16 -23 22 l-24 13 23 0 c13 0 20 4 17 10 -8
13 -42 13 -50 0z"/>
<path d="M14910 1210 c0 -22 5 -40 10 -40 6 0 10 18 10 40 0 22 -4 40 -10 40
-5 0 -10 -18 -10 -40z"/>
<path d="M14962 1238 c-27 -27 -3 -73 35 -66 27 5 25 72 -2 76 -11 1 -26 -3
-33 -10z m43 -28 c0 -8 -8 -16 -17 -18 -13 -2 -18 3 -18 18 0 15 5 20 18 18 9
-2 17 -10 17 -18z"/>
<path d="M15040 1208 c0 -21 5 -38 10 -38 6 0 10 14 10 31 0 38 24 35 28 -4 4
-30 22 -38 22 -9 0 44 -12 61 -41 60 -27 -1 -29 -4 -29 -40z"/>
<path d="M3955 1228 c-3 -7 -4 -171 -3 -363 l3 -350 405 0 405 0 0 360 0 360
-403 3 c-318 2 -404 0 -407 -10z m805 -353 l0 -355 -400 0 -400 0 0 355 0 355
400 0 400 0 0 -355z"/>
<path d="M4935 1228 c-3 -7 -4 -168 -3 -358 l3 -345 405 0 405 0 0 355 0 355
-403 3 c-318 2 -404 0 -407 -10z m805 -348 l0 -350 -400 0 -400 0 0 350 0 350
400 0 400 0 0 -350z"/>
<path d="M12705 1228 c-3 -7 -4 -168 -3 -358 l3 -345 405 0 405 0 0 355 0 355
-403 3 c-318 2 -404 0 -407 -10z m805 -348 l0 -350 -400 0 -400 0 0 350 0 350
400 0 400 0 0 -350z"/>
<path d="M1925 1218 c-3 -7 -4 -168 -3 -358 l3 -345 405 0 405 0 0 355 0 355
-403 3 c-318 2 -404 0 -407 -10z m805 -348 l0 -350 -400 0 -400 0 0 350 0 350
400 0 400 0 0 -350z"/>
<path d="M2885 1218 c-3 -7 -4 -168 -3 -358 l3 -345 405 0 405 0 0 355 0 355
-403 3 c-318 2 -404 0 -407 -10z m805 -348 l0 -350 -400 0 -400 0 0 350 0 350
400 0 400 0 0 -350z"/>
<path d="M424 1075 c-15 -23 -15 -27 0 -50 19 -29 47 -32 70 -9 20 20 20 48 0
68 -23 23 -51 20 -70 -9z m66 -5 c15 -28 -4 -62 -33 -58 -22 3 -34 35 -23 64
8 21 44 17 56 -6z"/>
<path d="M988 1088 c-6 -20 6 -81 17 -85 8 -2 11 35 6 90 -1 12 -19 8 -23 -5z"/>
<path d="M13828 1093 l32 -4 -30 -37 c-16 -20 -30 -40 -30 -44 0 -5 19 -7 43
-6 36 1 38 2 10 5 -18 2 -33 7 -33 9 0 3 11 20 25 38 14 18 25 36 25 39 0 4
-17 6 -37 5 -38 -1 -38 -1 -5 -5z"/>
<path d="M14518 1088 c-2 -7 -1 -31 3 -53 l6 -40 2 38 c0 22 6 37 14 37 9 0 8
3 -2 9 -11 7 -11 9 0 14 10 4 10 6 -2 6 -9 1 -19 -5 -21 -11z"/>
<path d="M532 1038 c1 -41 1 -41 5 -8 3 19 10 38 16 42 8 5 6 8 -5 8 -15 0
-18 -8 -16 -42z"/>
<path d="M575 1060 c-10 -32 4 -63 26 -57 12 3 19 0 19 -10 0 -12 -7 -14 -27
-8 -21 5 -25 4 -17 -5 7 -7 20 -10 30 -8 15 2 20 14 22 53 3 47 1 51 -22 53
-17 1 -27 -5 -31 -18z m40 -20 c0 -13 -6 -25 -12 -27 -16 -6 -27 21 -19 43 9
23 31 11 31 -16z"/>
<path d="M655 1070 c-4 -7 2 -9 19 -4 15 3 26 2 26 -4 0 -5 -12 -13 -26 -16
-35 -9 -29 -41 9 -42 25 -1 27 2 27 37 0 35 -3 39 -24 39 -14 0 -28 -5 -31
-10z m45 -40 c0 -13 -28 -25 -38 -16 -3 4 0 11 8 16 20 13 30 12 30 0z"/>
<path d="M731 1036 c1 -42 3 -41 13 7 9 38 34 35 39 -5 4 -33 4 -33 3 2 -1 31
-4 35 -28 36 -26 1 -28 -1 -27 -40z"/>
<path d="M813 1040 c0 -25 2 -35 4 -22 2 12 2 32 0 45 -2 12 -4 2 -4 -23z"/>
<path d="M847 1073 c-13 -13 -7 -31 13 -36 11 -3 20 -11 20 -17 0 -7 -8 -10
-20 -7 -11 3 -18 1 -14 -4 8 -14 41 -11 47 5 6 16 -11 36 -30 36 -7 0 -13 5
-13 11 0 6 9 9 20 6 11 -3 18 -1 14 4 -6 11 -28 12 -37 2z"/>
<path d="M915 1070 c-4 -7 2 -9 19 -4 15 3 26 2 26 -4 0 -5 -12 -13 -26 -16
-35 -9 -29 -41 9 -42 25 -1 27 2 27 37 0 35 -3 39 -24 39 -14 0 -28 -5 -31
-10z m45 -40 c0 -13 -28 -25 -38 -16 -3 4 0 11 8 16 20 13 30 12 30 0z"/>
<path d="M1033 1040 c0 -25 2 -35 4 -22 2 12 2 32 0 45 -2 12 -4 2 -4 -23z"/>
<path d="M1072 1068 c-23 -23 -7 -68 25 -68 21 0 35 37 23 60 -12 23 -30 26
-48 8z m38 -28 c0 -20 -5 -30 -15 -30 -18 0 -30 24 -21 45 10 28 36 17 36 -15z"/>
<path d="M1141 1036 c1 -42 3 -41 13 7 9 38 34 35 39 -5 4 -33 4 -33 3 2 -1
31 -4 35 -28 36 -26 1 -28 -1 -27 -40z"/>
<path d="M13893 1045 c2 -36 5 -40 30 -41 25 -1 27 1 26 40 l-2 41 -6 -35 c-4
-22 -12 -35 -21 -35 -9 0 -18 13 -22 35 l-6 35 1 -40z"/>
<path d="M13977 1073 c-13 -13 -7 -32 13 -38 11 -3 20 -11 20 -17 0 -6 -9 -8
-20 -5 -11 3 -20 1 -20 -5 0 -5 10 -8 22 -6 30 4 35 34 9 43 -27 8 -27 29 -1
22 11 -3 18 -1 14 4 -6 11 -28 12 -37 2z"/>
<path d="M14046 1072 c-3 -6 2 -8 13 -5 10 3 21 0 25 -5 3 -5 -6 -13 -20 -16
-35 -9 -28 -41 9 -42 26 -1 28 1 25 35 -2 28 -8 37 -25 39 -11 2 -24 -1 -27
-6z m44 -42 c0 -13 -28 -25 -38 -16 -3 4 0 11 8 16 20 13 30 12 30 0z"/>
<path d="M14121 1036 l2 -41 6 34 c8 48 31 53 31 7 0 -20 5 -36 10 -36 6 0 10
16 10 36 0 46 22 41 32 -7 6 -34 6 -34 5 6 l-2 40 -47 1 -48 1 1 -41z"/>
<path d="M14241 1036 l2 -41 6 34 c8 48 31 53 31 7 0 -20 5 -36 10 -36 6 0 10
16 10 36 0 46 22 41 32 -7 6 -34 6 -34 5 6 l-2 40 -47 1 -48 1 1 -41z"/>
<path d="M14360 1061 c-8 -15 -8 -27 0 -41 11 -20 44 -27 54 -12 3 5 -4 8 -16
8 -12 -1 -23 5 -25 12 -3 7 5 12 22 12 20 0 26 4 23 18 -5 25 -44 27 -58 3z
m45 -1 c3 -5 -3 -10 -14 -10 -12 0 -21 5 -21 10 0 6 6 10 14 10 8 0 18 -4 21
-10z"/>
<path d="M14441 1035 l2 -40 6 34 c8 48 31 53 31 7 0 -20 5 -36 10 -36 11 0
13 24 4 57 -5 16 -13 22 -30 21 -21 -2 -24 -7 -23 -43z"/>
<path d="M14560 1071 c0 -5 9 -7 20 -4 29 8 25 -12 -6 -26 -33 -15 -26 -36 12
-38 28 -1 29 0 26 38 -4 33 -8 39 -28 39 -13 0 -24 -4 -24 -9z m40 -40 c0 -14
-18 -23 -31 -15 -8 4 -7 9 2 15 18 11 29 11 29 0z"/>
<path d="M14637 1073 c-13 -12 -7 -23 18 -35 28 -13 23 -32 -8 -24 -14 3 -17
2 -10 -5 15 -15 47 -7 51 13 2 12 -5 19 -22 24 -14 3 -26 11 -26 16 0 6 9 8
20 5 11 -3 20 -1 20 4 0 10 -33 12 -43 2z"/>
<path d="M14707 1073 c-13 -12 -7 -23 18 -35 34 -15 32 -32 -2 -23 -21 5 -25
4 -17 -5 7 -7 20 -10 30 -8 27 5 30 35 5 43 -12 3 -21 11 -21 16 0 6 9 7 21 4
15 -5 19 -4 15 4 -8 12 -39 15 -49 4z"/>
<path d="M14784 1040 c1 -30 5 -35 29 -38 26 -3 27 -1 27 37 0 23 -4 41 -10
41 -5 0 -10 -16 -10 -35 0 -46 -27 -48 -33 -2 -4 32 -4 32 -3 -3z"/>
<path d="M14862 1038 l1 -43 4 38 c3 23 9 37 18 37 9 0 15 -14 18 -37 l4 -38
1 43 c2 39 0 42 -23 42 -23 0 -25 -3 -23 -42z"/>
<path d="M14935 1060 c-10 -32 4 -63 26 -57 12 3 19 0 19 -10 0 -12 -7 -14
-27 -8 -21 5 -25 4 -17 -5 7 -7 20 -10 30 -8 15 2 20 14 22 53 3 47 1 51 -22
53 -17 1 -27 -5 -31 -18z m40 -20 c0 -27 -22 -39 -31 -16 -8 22 3 49 19 43 6
-2 12 -14 12 -27z"/>
<path d="M388 923 l32 -4 -30 -37 c-16 -20 -30 -40 -30 -44 0 -5 19 -7 43 -6
36 1 38 2 10 5 -18 2 -33 7 -33 9 0 3 11 20 25 38 14 18 25 36 25 39 0 4 -17
6 -37 5 -38 -1 -38 -1 -5 -5z"/>
<path d="M563 880 c0 -30 2 -43 4 -27 2 15 2 39 0 55 -2 15 -4 2 -4 -28z"/>
<path d="M726 921 c-4 -5 -3 -16 0 -25 3 -9 1 -16 -6 -16 -6 0 -10 -10 -8 -22
2 -19 9 -23 39 -23 31 -1 35 2 31 22 -2 12 -7 22 -11 21 -18 -2 -22 4 -11 17
6 8 9 19 5 25 -8 12 -32 13 -39 1z m34 -11 c0 -5 -7 -10 -15 -10 -8 0 -15 5
-15 10 0 6 7 10 15 10 8 0 15 -4 15 -10z m-10 -64 c-13 -13 -35 7 -25 24 5 8
11 8 21 -1 10 -8 12 -15 4 -23z"/>
<path d="M853 880 c0 -30 2 -43 4 -27 2 15 2 39 0 55 -2 15 -4 2 -4 -28z"/>
<path d="M972 880 c1 -43 2 -46 5 -17 3 23 9 37 18 37 9 0 15 -14 18 -37 l4
-38 1 38 c2 28 -3 39 -15 44 -10 4 -21 11 -25 17 -4 6 -7 -14 -6 -44z"/>
<path d="M1123 880 c0 -30 2 -43 4 -27 2 15 2 39 0 55 -2 15 -4 2 -4 -28z"/>
<path d="M1158 920 c-5 -17 3 -90 11 -90 3 0 5 21 4 46 -1 46 -8 65 -15 44z"/>
<path d="M14101 878 c1 -29 4 -43 6 -30 3 15 11 22 27 22 29 0 49 22 40 44 -4
10 -18 16 -40 16 l-34 0 1 -52z m64 22 c0 -9 -11 -16 -27 -18 -23 -3 -28 1
-28 18 0 17 5 21 28 18 16 -2 27 -9 27 -18z"/>
<path d="M14328 918 c-2 -7 -1 -31 3 -53 l6 -40 2 38 c0 20 1 40 0 43 0 4 5
11 13 15 10 7 9 9 -3 9 -9 0 -19 -6 -21 -12z"/>
<path d="M453 870 c0 -25 2 -35 4 -22 2 12 2 32 0 45 -2 12 -4 2 -4 -23z"/>
<path d="M484 896 c-16 -41 20 -86 47 -59 6 6 1 9 -12 9 -12 -1 -24 5 -26 12
-3 7 5 12 22 12 20 0 26 4 23 18 -4 22 -46 29 -54 8z m46 -6 c0 -5 -9 -10 -21
-10 -11 0 -17 5 -14 10 3 6 13 10 21 10 8 0 14 -4 14 -10z"/>
<path d="M594 896 c-16 -41 20 -86 47 -59 6 6 1 9 -12 9 -12 -1 -24 5 -26 12
-3 7 5 12 22 12 20 0 26 4 23 18 -4 22 -46 29 -54 8z m46 -6 c0 -5 -9 -10 -21
-10 -11 0 -17 5 -14 10 3 6 13 10 21 10 8 0 14 -4 14 -10z"/>
<path d="M892 868 l1 -43 4 38 c3 23 9 37 18 37 9 0 15 -14 18 -37 l4 -38 1
43 c2 39 0 42 -23 42 -23 0 -25 -3 -23 -42z"/>
<path d="M1045 900 c-4 -7 2 -9 19 -4 15 3 26 2 26 -4 0 -5 -12 -13 -26 -16
-35 -9 -29 -41 9 -42 25 -1 27 2 27 37 0 35 -3 39 -24 39 -14 0 -28 -5 -31
-10z m45 -40 c0 -13 -28 -25 -38 -16 -3 4 0 11 8 16 20 13 30 12 30 0z"/>
<path d="M1200 895 c-15 -18 -10 -45 12 -59 12 -7 21 -7 28 0 8 8 4 10 -11 10
-12 -1 -24 5 -26 12 -3 8 6 12 27 12 28 0 30 2 20 20 -13 24 -33 26 -50 5z
m40 -5 c0 -5 -9 -10 -21 -10 -11 0 -17 5 -14 10 3 6 13 10 21 10 8 0 14 -4 14
-10z"/>
<path d="M14202 868 c1 -41 1 -41 5 -8 3 19 10 38 16 42 8 5 6 8 -5 8 -15 0
-18 -8 -16 -42z"/>
<path d="M14240 883 c0 -38 11 -52 38 -50 19 1 22 7 21 42 l-2 40 -6 -34 c-8
-48 -31 -53 -31 -7 0 20 -4 36 -10 36 -5 0 -10 -12 -10 -27z"/>
<path d="M14363 875 c2 -36 5 -40 30 -41 25 -1 27 1 26 40 l-2 41 -6 -35 c-4
-22 -12 -35 -21 -35 -9 0 -18 13 -22 35 l-6 35 1 -40z"/>
<path d="M14441 866 l2 -41 6 35 c4 22 12 35 21 35 9 0 18 -13 22 -35 l6 -35
-1 40 c-2 36 -5 40 -29 41 -26 1 -28 -1 -27 -40z"/>
<path d="M14526 903 c-3 -3 -6 -20 -6 -36 0 -20 6 -30 20 -34 11 -3 20 -10 20
-15 0 -6 -9 -8 -20 -5 -11 3 -20 1 -20 -4 0 -13 34 -11 48 3 7 7 12 30 12 53
0 35 -3 41 -24 43 -13 1 -26 -1 -30 -5z m35 -10 c8 -44 4 -60 -13 -55 -23 6
-26 62 -3 62 8 0 16 -3 16 -7z"/>
<path d="M14600 891 c0 -11 9 -23 20 -26 31 -10 24 -28 -7 -20 -21 5 -25 4
-17 -5 7 -7 20 -10 30 -8 27 5 30 35 5 43 -27 8 -27 29 -1 22 11 -3 18 -1 14
4 -10 17 -44 10 -44 -10z"/>
<path d="M14668 863 c6 -2 18 -2 25 0 6 3 1 5 -13 5 -14 0 -19 -2 -12 -5z"/>
<path d="M50 710 l0 -50 38 1 c30 2 32 3 10 6 -26 4 -28 8 -28 49 0 24 -4 44
-10 44 -5 0 -10 -22 -10 -50z"/>
<path d="M308 748 c-6 -20 6 -81 17 -85 8 -2 11 35 6 90 -1 12 -19 8 -23 -5z"/>
<path d="M823 748 c-5 -7 -6 -31 -2 -53 l6 -40 2 38 c0 22 6 37 14 37 9 0 8 3
-2 9 -11 7 -11 9 0 14 8 3 9 6 3 6 -6 1 -16 -5 -21 -11z"/>
<path d="M1030 752 c0 -4 -10 -12 -22 -17 -41 -18 -31 -75 13 -75 16 0 19 8
19 50 0 28 -2 50 -5 50 -3 0 -5 -3 -5 -8z m-5 -52 c0 -13 -6 -25 -12 -27 -16
-6 -27 21 -19 43 9 23 31 11 31 -16z"/>
<path d="M14101 715 c-1 -43 2 -51 18 -52 28 -2 44 22 37 53 -5 19 -12 25 -26
21 -12 -3 -21 1 -23 12 -3 9 -5 -7 -6 -34z m44 -15 c0 -27 -22 -39 -31 -16 -8
22 3 49 19 43 6 -2 12 -14 12 -27z"/>
<path d="M14600 710 c0 -27 5 -50 10 -50 6 0 10 16 10 35 0 50 27 48 33 -2 l4
-38 1 38 c2 31 -2 40 -18 44 -11 3 -20 9 -20 14 0 5 -4 9 -10 9 -5 0 -10 -22
-10 -50z"/>
<path d="M134 726 c-16 -41 20 -86 47 -59 6 6 1 9 -12 9 -12 -1 -24 5 -26 12
-3 7 5 12 22 12 20 0 26 4 23 18 -4 22 -46 29 -54 8z m46 -6 c0 -5 -9 -10 -21
-10 -11 0 -17 5 -14 10 3 6 13 10 21 10 8 0 14 -4 14 -10z"/>
<path d="M213 700 c0 -25 2 -35 4 -22 2 12 2 32 0 45 -2 12 -4 2 -4 -23z"/>
<path d="M247 733 c-13 -13 -7 -31 13 -36 11 -3 20 -11 20 -17 0 -8 -8 -10
-21 -7 -16 4 -19 3 -11 -5 14 -14 42 -3 42 16 0 8 -9 18 -20 21 -26 8 -26 29
0 22 11 -3 18 -1 14 4 -6 11 -28 12 -37 2z"/>
<path d="M353 705 c2 -36 5 -40 30 -41 25 -1 27 1 26 40 l-2 41 -6 -35 c-4
-22 -12 -35 -21 -35 -9 0 -18 13 -22 35 l-6 35 1 -40z"/>
<path d="M431 696 l2 -41 6 35 c4 22 12 35 21 35 9 0 18 -13 22 -35 l6 -35 -1
40 c-2 36 -5 40 -29 41 -26 1 -28 -1 -27 -40z"/>
<path d="M516 733 c-3 -3 -6 -20 -6 -36 0 -20 6 -30 20 -34 11 -3 20 -10 20
-15 0 -6 -9 -8 -20 -5 -11 3 -20 1 -20 -4 0 -13 34 -11 48 3 7 7 12 30 12 53
0 35 -3 41 -24 43 -13 1 -26 -1 -30 -5z m35 -10 c8 -44 4 -60 -13 -55 -23 6
-26 62 -3 62 8 0 16 -3 16 -7z"/>
<path d="M590 721 c0 -11 9 -23 20 -26 31 -10 24 -28 -7 -20 -21 5 -25 4 -17
-5 7 -7 20 -10 30 -8 27 5 30 35 5 43 -27 8 -27 29 -1 22 11 -3 18 -1 14 4
-10 17 -44 10 -44 -10z"/>
<path d="M666 732 c-3 -6 2 -8 13 -5 10 3 21 0 25 -5 3 -5 -5 -13 -19 -16 -16
-4 -25 -13 -25 -26 0 -16 6 -20 30 -18 29 2 31 5 28 38 -2 27 -8 36 -25 38
-11 2 -24 -1 -27 -6z m44 -42 c0 -12 -28 -25 -36 -17 -9 9 6 27 22 27 8 0 14
-5 14 -10z"/>
<path d="M741 695 l2 -40 6 34 c8 48 31 53 31 7 0 -20 5 -36 10 -36 12 0 13
49 2 67 -4 7 -18 11 -30 10 -19 -1 -22 -7 -21 -42z"/>
<path d="M867 733 c-14 -13 -7 -64 9 -70 24 -9 48 21 40 51 -6 25 -33 35 -49
19z m38 -33 c0 -16 -6 -26 -17 -28 -14 -3 -18 3 -18 28 0 25 4 31 18 28 11 -2
17 -12 17 -28z"/>
<path d="M942 698 c1 -41 1 -41 5 -8 3 19 10 38 16 42 8 5 6 8 -5 8 -15 0 -18
-8 -16 -42z"/>
<path d="M1070 725 c-15 -18 -10 -45 12 -59 12 -7 21 -7 28 0 8 8 4 10 -11 10
-12 -1 -24 5 -26 12 -3 8 6 12 27 12 28 0 30 2 20 20 -13 24 -33 26 -50 5z
m40 -5 c0 -5 -9 -10 -21 -10 -11 0 -17 5 -14 10 3 6 13 10 21 10 8 0 14 -4 14
-10z"/>
<path d="M1141 698 l1 -43 8 34 c4 18 14 37 22 42 9 6 7 9 -9 9 -20 0 -23 -5
-22 -42z"/>
<path d="M1193 705 c2 -36 5 -40 30 -41 25 -1 27 1 26 40 l-2 41 -6 -35 c-4
-22 -12 -35 -21 -35 -9 0 -18 13 -22 35 l-6 35 1 -40z"/>
<path d="M1271 695 l2 -40 6 34 c8 48 31 53 31 7 0 -20 5 -36 10 -36 12 0 13
49 2 67 -4 7 -18 11 -30 10 -19 -1 -22 -7 -21 -42z"/>
<path d="M1350 720 c-13 -24 3 -60 25 -60 8 0 15 -5 15 -11 0 -6 -9 -9 -20 -6
-11 3 -20 1 -20 -4 0 -5 9 -9 20 -9 25 0 40 29 40 74 0 32 -3 36 -25 36 -14 0
-29 -8 -35 -20z m40 -20 c0 -20 -5 -30 -15 -30 -10 0 -15 10 -15 30 0 20 5 30
15 30 10 0 15 -10 15 -30z"/>
<path d="M1428 715 c-8 -19 -8 -28 2 -40 14 -17 46 -20 55 -5 4 7 -2 9 -18 5
-17 -5 -26 -2 -30 9 -5 12 0 16 23 16 32 0 37 9 18 28 -19 19 -37 14 -50 -13z
m47 5 c3 -5 -3 -10 -14 -10 -12 0 -21 5 -21 10 0 6 6 10 14 10 8 0 18 -4 21
-10z"/>
<path d="M1512 698 l1 -43 4 38 c3 23 9 37 18 37 9 0 15 -14 18 -37 l4 -38 1
43 c2 39 0 42 -23 42 -23 0 -25 -3 -23 -42z"/>
<path d="M13903 705 c7 -19 17 -34 22 -34 6 0 15 15 22 34 15 44 8 46 -10 3
l-14 -33 -7 33 c-4 17 -11 32 -16 32 -5 0 -4 -16 3 -35z"/>
<path d="M13974 726 c-3 -8 -4 -25 -2 -38 2 -17 9 -23 28 -23 22 0 25 4 25 35
0 29 -4 36 -23 38 -13 2 -24 -3 -28 -12z m41 -26 c0 -27 -22 -39 -31 -16 -8
22 3 49 19 43 6 -2 12 -14 12 -27z"/>
<path d="M14051 698 c2 -34 3 -37 6 -13 2 17 12 36 21 43 14 11 13 12 -6 12
-19 0 -22 -5 -21 -42z"/>
<path d="M14182 728 c-25 -25 -6 -68 29 -68 10 0 21 5 24 10 4 7 -2 9 -18 5
-17 -5 -26 -2 -30 9 -5 12 0 16 23 16 17 0 30 4 30 8 0 12 -22 32 -35 32 -6 0
-16 -5 -23 -12z m43 -8 c4 -6 -5 -10 -20 -10 -15 0 -24 4 -20 10 3 6 12 10 20
10 8 0 17 -4 20 -10z"/>
<path d="M14257 733 c-13 -12 -7 -23 18 -35 28 -13 23 -32 -8 -24 -14 3 -17 2
-10 -5 15 -15 47 -7 51 13 2 12 -5 19 -22 24 -14 3 -26 11 -26 16 0 6 9 8 20
5 11 -3 20 -1 20 4 0 10 -33 12 -43 2z"/>
<path d="M14331 683 c1 -32 3 -51 5 -43 3 9 15 20 27 25 40 18 29 75 -14 75
-17 0 -19 -8 -18 -57z m44 16 c0 -15 -7 -25 -17 -27 -13 -3 -18 3 -18 21 0 13
3 27 7 31 13 12 28 -1 28 -25z"/>
<path d="M14412 698 c1 -41 1 -41 5 -8 3 19 10 38 16 42 8 5 6 8 -5 8 -15 0
-18 -8 -16 -42z"/>
<path d="M14460 725 c-15 -18 -10 -45 12 -59 12 -7 21 -7 28 0 8 8 4 10 -11
10 -12 -1 -24 5 -26 12 -3 8 6 12 27 12 28 0 30 2 20 20 -13 24 -33 26 -50 5z
m40 -5 c0 -5 -9 -10 -21 -10 -11 0 -17 5 -14 10 3 6 13 10 21 10 8 0 14 -4 14
-10z"/>
<path d="M14534 726 c-16 -41 20 -86 47 -59 6 6 1 9 -13 9 -18 -1 -23 4 -23
24 0 20 4 25 23 23 13 -2 21 1 17 7 -9 15 -45 12 -51 -4z"/>
<path d="M14683 705 c2 -36 5 -40 30 -41 25 -1 27 1 26 40 l-2 41 -6 -35 c-4
-22 -12 -35 -21 -35 -9 0 -18 13 -22 35 l-6 35 1 -40z"/>
<path d="M14761 696 l2 -41 6 35 c4 22 12 35 21 35 9 0 18 -13 22 -35 l6 -35
-1 40 c-2 36 -5 40 -29 41 -26 1 -28 -1 -27 -40z"/>
<path d="M14846 733 c-3 -3 -6 -20 -6 -36 0 -20 6 -30 20 -34 11 -3 20 -10 20
-15 0 -6 -9 -8 -20 -5 -11 3 -20 1 -20 -4 0 -13 34 -11 48 3 7 7 12 30 12 53
0 35 -3 41 -24 43 -13 1 -26 -1 -30 -5z m35 -10 c8 -44 4 -60 -13 -55 -23 6
-26 62 -3 62 8 0 16 -3 16 -7z"/>
<path d="M302 540 c-12 -27 -17 -50 -11 -50 5 0 9 7 9 15 0 9 9 15 25 15 14 0
28 -7 31 -15 4 -8 10 -15 14 -15 5 0 -1 23 -13 50 -11 28 -24 50 -28 50 -3 0
-16 -22 -27 -50z m38 10 c9 -17 8 -20 -9 -20 -14 0 -18 5 -14 20 3 11 7 20 9
20 2 0 8 -9 14 -20z"/>
<path d="M440 543 c0 -45 3 -53 19 -53 42 0 54 53 16 74 -11 6 -23 16 -27 21
-4 6 -8 -14 -8 -42z m44 2 c8 -21 -3 -45 -20 -45 -9 0 -14 11 -14 30 0 32 23
42 34 15z"/>
<path d="M628 580 c-5 -17 3 -90 11 -90 3 0 5 21 4 46 -1 46 -8 65 -15 44z"/>
<path d="M980 580 c0 -5 -9 -10 -20 -10 -25 0 -34 -21 -26 -55 5 -18 13 -25
31 -25 23 0 25 3 25 50 0 28 -2 50 -5 50 -3 0 -5 -4 -5 -10z m-5 -50 c0 -13
-6 -25 -12 -27 -16 -6 -27 21 -19 43 9 23 31 11 31 -16z"/>
<path d="M1213 540 c0 -30 2 -43 4 -27 2 15 2 39 0 55 -2 15 -4 2 -4 -28z"/>
<path d="M1252 578 c-27 -27 -5 -88 32 -88 13 0 29 7 36 15 15 18 7 19 -19 3
-38 -24 -70 34 -35 63 13 10 19 10 36 0 16 -10 19 -10 16 1 -6 17 -50 22 -66
6z"/>
<path d="M392 528 c1 -41 1 -41 5 -8 3 19 10 38 16 42 8 5 6 8 -5 8 -15 0 -18
-8 -16 -42z"/>
<path d="M520 555 c-15 -18 -10 -45 12 -59 12 -7 21 -7 28 0 8 8 4 10 -11 10
-12 -1 -24 5 -26 12 -3 8 6 12 27 12 28 0 30 2 20 20 -13 24 -33 26 -50 5z
m40 -5 c0 -5 -9 -10 -21 -10 -11 0 -17 5 -14 10 3 6 13 10 21 10 8 0 14 -4 14
-10z"/>
<path d="M590 530 c0 -22 5 -40 10 -40 6 0 10 18 10 40 0 22 -4 40 -10 40 -5
0 -10 -18 -10 -40z"/>
<path d="M667 563 c-13 -12 -7 -23 18 -35 28 -13 23 -32 -8 -24 -14 3 -17 2
-10 -5 15 -15 48 -7 48 11 0 8 -10 19 -22 25 -28 12 -30 29 -3 22 11 -3 20 -1
20 4 0 10 -33 12 -43 2z"/>
<path d="M742 527 l1 -42 4 38 c3 24 9 37 19 37 9 0 14 -12 15 -37 l2 -38 6
34 c9 49 29 51 34 4 l4 -38 1 41 2 41 -45 1 -45 0 2 -41z"/>
<path d="M862 558 c-23 -23 -7 -68 25 -68 21 0 35 37 23 60 -12 23 -30 26 -48
8z m38 -28 c0 -20 -5 -30 -15 -30 -18 0 -30 24 -21 45 10 28 36 17 36 -15z"/>
<path d="M1013 535 c2 -36 5 -40 30 -41 25 -1 27 1 26 40 l-2 41 -6 -35 c-4
-22 -12 -35 -21 -35 -9 0 -18 13 -22 35 l-6 35 1 -40z"/>
<path d="M1097 563 c-13 -13 -7 -31 13 -36 11 -3 20 -11 20 -17 0 -8 -8 -10
-21 -7 -16 4 -19 3 -11 -5 14 -14 42 -3 42 16 0 8 -9 18 -20 21 -26 8 -26 29
0 22 11 -3 18 -1 14 4 -6 11 -28 12 -37 2z"/>
<path d="M451 368 c1 -29 4 -41 6 -26 3 20 11 28 31 31 l27 4 -27 2 c-40 2
-36 29 5 34 31 4 31 4 -5 5 l-38 2 1 -52z"/>
<path d="M828 408 c-2 -7 -1 -31 3 -53 l6 -40 2 38 c0 20 1 40 0 43 0 4 5 11
13 15 10 7 9 9 -3 9 -9 0 -19 -6 -21 -12z"/>
<path d="M542 358 c1 -41 1 -41 5 -8 3 19 10 38 16 42 8 5 6 8 -5 8 -15 0 -18
-8 -16 -42z"/>
<path d="M585 390 c-4 -7 2 -9 19 -4 34 8 34 -9 0 -25 -33 -15 -26 -36 12 -38
28 -1 29 0 26 38 -4 33 -8 39 -27 39 -13 0 -27 -5 -30 -10z m45 -40 c0 -13
-28 -25 -38 -16 -3 4 0 11 8 16 20 13 30 12 30 0z"/>
<path d="M664 386 c-12 -31 0 -61 24 -60 12 0 21 -4 19 -10 -2 -6 -14 -11 -26
-10 -13 0 -18 -3 -12 -9 5 -5 17 -7 27 -5 15 2 20 14 22 53 3 48 2 51 -23 53
-15 1 -28 -4 -31 -12z m41 -26 c0 -27 -22 -39 -31 -16 -8 22 3 49 19 43 6 -2
12 -14 12 -27z"/>
<path d="M750 385 c-15 -18 -10 -45 12 -59 12 -7 21 -7 28 0 8 8 4 10 -11 10
-12 -1 -24 5 -26 12 -3 8 6 12 27 12 28 0 30 2 20 20 -13 24 -33 26 -50 5z
m40 -5 c0 -5 -9 -10 -21 -10 -11 0 -17 5 -14 10 3 6 13 10 21 10 8 0 14 -4 14
-10z"/>
<path d="M864 386 c-3 -8 -4 -25 -2 -38 2 -17 9 -23 28 -23 22 0 25 4 25 35 0
29 -4 36 -23 38 -13 2 -24 -3 -28 -12z m41 -26 c0 -13 -6 -25 -12 -27 -16 -6
-27 21 -19 43 9 23 31 11 31 -16z"/>
<path d="M941 358 c2 -34 3 -37 6 -13 2 17 12 36 21 43 14 11 13 12 -6 12 -19
0 -22 -5 -21 -42z"/>
<path d="M994 360 c1 -31 4 -35 29 -36 25 -1 27 2 27 37 0 22 -4 39 -10 39 -5
0 -10 -16 -10 -35 0 -46 -27 -48 -33 -2 -4 32 -4 32 -3 -3z"/>
<path d="M1071 356 l2 -41 6 34 c9 49 31 52 32 4 l2 -38 6 34 c8 48 31 53 31
7 0 -20 5 -36 10 -36 12 0 13 49 2 66 -4 7 -26 11 -49 11 l-43 -1 1 -40z"/>
<path d="M2078 343 c-9 -26 -14 -50 -11 -53 3 -3 8 1 10 8 3 6 15 12 28 12 13
0 25 -6 28 -12 2 -7 8 -10 12 -6 11 10 -24 98 -38 98 -7 0 -20 -21 -29 -47z
m42 -4 c0 -5 -7 -9 -15 -9 -9 0 -12 6 -9 15 6 15 24 11 24 -6z"/>
<path d="M2170 340 c0 -27 5 -50 10 -50 6 0 10 7 10 15 0 20 16 19 24 -1 4 -9
9 -14 12 -11 3 3 0 15 -6 27 -9 16 -9 25 1 36 14 17 -2 19 -19 2 -9 -9 -12 -7
-12 10 0 12 -4 22 -10 22 -5 0 -10 -22 -10 -50z"/>
<path d="M2252 377 c-15 -18 0 -81 21 -85 9 -2 17 1 17 7 0 6 -4 11 -10 11
-14 0 -12 38 2 42 9 3 8 9 -4 21 -12 13 -18 14 -26 4z"/>
<path d="M3005 344 c-9 -25 -14 -48 -10 -52 4 -4 10 -1 12 6 3 6 15 12 28 12
13 0 25 -6 28 -12 2 -7 7 -10 11 -7 9 9 -27 99 -40 99 -6 0 -19 -21 -29 -46z
m34 -13 c-15 -5 -22 6 -14 19 6 9 10 9 16 -1 5 -8 4 -15 -2 -18z"/>
<path d="M3100 340 c0 -27 5 -50 10 -50 6 0 10 8 10 18 1 15 2 15 15 -2 19
-25 30 -14 15 14 -9 16 -9 25 1 36 14 17 -2 19 -19 2 -9 -9 -12 -7 -12 10 0
12 -4 22 -10 22 -5 0 -10 -22 -10 -50z"/>
<path d="M3183 378 c-13 -17 -4 -88 11 -88 8 0 12 15 11 45 -2 51 -8 61 -22
43z"/>
<path d="M4070 366 c-5 -14 -14 -37 -20 -51 -11 -28 -8 -30 20 -13 16 10 24
10 40 0 29 -18 30 -16 10 35 -21 56 -36 64 -50 29z m30 -21 c0 -8 -4 -15 -10
-15 -5 0 -10 7 -10 15 0 8 5 15 10 15 6 0 10 -7 10 -15z"/>
<path d="M4150 340 c0 -27 5 -50 10 -50 6 0 10 7 10 15 0 8 4 15 9 15 5 0 11
-7 15 -15 3 -8 10 -15 16 -15 8 0 7 6 0 20 -6 12 -8 30 -5 40 7 22 -5 26 -23
8 -9 -9 -12 -7 -12 10 0 12 -4 22 -10 22 -5 0 -10 -22 -10 -50z"/>
<path d="M4234 376 c-10 -26 5 -86 21 -86 8 0 15 5 15 10 0 6 -4 10 -10 10
-14 0 -12 38 2 42 9 3 8 10 -5 22 -15 16 -18 16 -23 2z"/>
<path d="M4987 343 c-9 -25 -14 -49 -11 -52 4 -3 9 0 11 7 3 6 15 12 28 12 13
0 25 -6 28 -12 2 -7 7 -10 11 -7 10 9 -24 99 -38 99 -6 0 -19 -21 -29 -47z
m43 -4 c0 -5 -7 -9 -15 -9 -9 0 -12 6 -9 15 6 15 24 11 24 -6z"/>
<path d="M5080 340 c0 -27 5 -50 10 -50 6 0 10 7 10 17 0 14 2 14 20 -2 22
-20 26 -14 9 16 -7 15 -7 24 2 35 14 17 -2 19 -19 2 -9 -9 -12 -7 -12 10 0 12
-4 22 -10 22 -5 0 -10 -22 -10 -50z"/>
<path d="M5162 378 c-12 -15 -2 -80 14 -85 7 -2 10 14 9 42 -2 52 -7 61 -23
43z"/>
<path d="M6156 374 c-41 -40 3 -99 58 -78 24 9 20 44 -4 44 -25 0 -26 -17 -2
-24 9 -2 4 -4 -13 -3 -25 2 -30 6 -30 27 0 18 6 26 23 28 13 2 22 -2 22 -9 0
-10 3 -10 12 -1 10 10 10 15 -2 22 -22 14 -47 12 -64 -6z"/>
<path d="M7372 378 c-17 -17 -15 -54 4 -72 26 -27 74 -17 74 15 0 12 -7 19
-20 19 -22 0 -27 -15 -7 -24 6 -3 1 -4 -13 -3 -17 1 -26 9 -28 25 -4 26 21 40
42 23 17 -14 29 -2 15 16 -14 16 -51 17 -67 1z"/>
<path d="M8361 376 c-16 -19 -10 -66 10 -79 24 -15 69 0 69 23 0 13 -7 20 -20
20 -22 0 -27 -15 -7 -24 6 -3 1 -4 -13 -3 -17 1 -26 9 -28 25 -4 26 21 40 42
23 17 -14 29 -2 15 16 -15 17 -53 17 -68 -1z"/>
<path d="M8540 340 c0 -27 5 -50 10 -50 6 0 10 23 10 50 0 28 -4 50 -10 50 -5
0 -10 -22 -10 -50z"/>
<path d="M8580 340 c0 -27 5 -50 10 -50 6 0 10 23 10 50 0 28 -4 50 -10 50 -5
0 -10 -22 -10 -50z"/>
<path d="M9640 340 l0 -50 40 0 c22 0 40 5 40 10 0 6 -13 10 -30 10 -16 0 -30
5 -30 10 0 6 11 10 25 10 14 0 25 5 25 10 0 6 -11 10 -25 10 -14 0 -25 5 -25
10 0 6 14 10 30 10 17 0 30 5 30 10 0 6 -18 10 -40 10 l-40 0 0 -50z"/>
<path d="M9740 340 c0 -27 5 -50 10 -50 6 0 10 23 10 50 0 28 -4 50 -10 50 -5
0 -10 -22 -10 -50z"/>
<path d="M10566 381 c-15 -24 -34 -91 -26 -91 5 0 12 5 15 10 9 14 42 12 48
-2 2 -7 8 -10 12 -6 9 9 -18 91 -32 95 -6 2 -14 0 -17 -6z m24 -42 c0 -5 -4
-9 -10 -9 -5 0 -10 7 -10 16 0 8 5 12 10 9 6 -3 10 -10 10 -16z"/>
<path d="M10640 340 c0 -27 5 -50 10 -50 6 0 10 7 10 15 0 8 4 15 9 15 5 0 11
-7 15 -15 3 -8 11 -15 17 -15 7 0 6 8 -4 23 -10 16 -12 28 -5 40 10 20 -2 23
-20 5 -9 -9 -12 -7 -12 10 0 12 -4 22 -10 22 -5 0 -10 -22 -10 -50z"/>
<path d="M10722 377 c-15 -18 0 -81 21 -85 9 -2 17 1 17 7 0 6 -4 11 -10 11
-14 0 -12 38 2 42 9 3 8 9 -4 21 -12 13 -18 14 -26 4z"/>
<path d="M10017 372 c-10 -17 6 -82 19 -82 8 0 14 5 14 10 0 6 -4 10 -10 10
-5 0 -10 9 -10 20 0 11 5 20 10 20 6 0 10 4 10 9 0 11 -28 22 -33 13z"/>
<path d="M2300 330 c0 -22 5 -40 10 -40 6 0 10 18 10 40 0 22 -4 40 -10 40 -5
0 -10 -18 -10 -40z"/>
<path d="M2330 366 c0 -14 32 -76 39 -76 5 0 12 11 15 24 3 13 9 31 12 40 3 9
2 16 -4 16 -5 0 -13 -12 -17 -27 l-7 -28 -10 28 c-5 15 -14 27 -19 27 -5 0 -9
-2 -9 -4z"/>
<path d="M2422 358 c-28 -28 0 -78 35 -63 16 7 15 9 -7 15 l-25 8 28 1 c15 1
27 7 27 14 0 16 -20 37 -35 37 -6 0 -16 -5 -23 -12z m35 -14 c-3 -3 -12 -4
-19 -1 -8 3 -5 6 6 6 11 1 17 -2 13 -5z"/>
<path d="M2495 360 c-9 -14 13 -40 34 -41 9 -1 3 -5 -14 -9 -26 -6 -28 -8 -11
-15 20 -9 47 3 48 20 0 6 -10 16 -23 22 l-24 13 23 0 c13 0 20 4 17 10 -8 13
-42 13 -50 0z"/>
<path d="M3220 330 c0 -22 5 -40 10 -40 6 0 10 18 10 40 0 22 -4 40 -10 40 -5
0 -10 -18 -10 -40z"/>
<path d="M3260 361 c0 -19 23 -71 31 -71 5 0 9 2 9 4 0 2 7 20 15 40 9 22 11
36 5 36 -6 0 -15 -10 -20 -22 l-9 -23 -7 23 c-6 21 -24 31 -24 13z"/>
<path d="M3347 364 c-4 -4 -7 -20 -7 -36 0 -31 20 -45 48 -33 15 7 14 9 -8 15
-25 8 -25 8 -2 9 18 1 23 6 20 24 -3 22 -36 36 -51 21z"/>
<path d="M3427 363 c-14 -13 -6 -32 16 -39 l22 -8 -25 -6 c-21 -6 -23 -8 -7
-15 9 -4 24 -5 32 -1 22 8 18 35 -7 46 l-23 9 23 0 c13 1 20 5 17 11 -7 11
-38 13 -48 3z"/>
<path d="M4280 330 c0 -22 5 -40 10 -40 6 0 10 18 10 40 0 22 -4 40 -10 40 -5
0 -10 -18 -10 -40z"/>
<path d="M4324 333 c17 -48 29 -51 44 -10 14 40 15 47 3 47 -5 0 -12 -12 -16
-27 l-7 -28 -10 28 c-5 15 -14 27 -18 27 -5 0 -3 -17 4 -37z"/>
<path d="M4400 350 c-14 -26 3 -60 30 -60 31 0 33 18 3 23 l-28 4 28 2 c28 1
35 19 15 39 -18 18 -36 15 -48 -8z m37 -6 c-3 -3 -12 -4 -19 -1 -8 3 -5 6 6 6
11 1 17 -2 13 -5z"/>
<path d="M4480 352 c0 -11 10 -24 23 -30 l22 -11 -22 0 c-13 -1 -23 -6 -23
-12 0 -6 12 -9 27 -7 38 4 42 33 6 46 -25 9 -26 11 -5 11 30 1 28 21 -3 21
-18 0 -25 -5 -25 -18z"/>
<path d="M5210 330 c0 -22 5 -40 10 -40 6 0 10 18 10 40 0 22 -4 40 -10 40 -5
0 -10 -18 -10 -40z"/>
<path d="M5244 354 c3 -9 9 -27 12 -40 9 -34 21 -30 39 12 18 43 18 44 6 44
-5 0 -14 -12 -19 -27 l-10 -28 -7 28 c-4 15 -12 27 -17 27 -6 0 -7 -7 -4 -16z"/>
<path d="M5332 358 c-28 -28 0 -78 35 -63 16 7 15 9 -7 15 l-25 8 28 1 c30 1
32 4 17 32 -12 22 -30 25 -48 7z m35 -14 c-3 -3 -12 -4 -19 -1 -8 3 -5 6 6 6
11 1 17 -2 13 -5z"/>
<path d="M5405 360 c-9 -14 13 -40 34 -41 9 -1 3 -5 -14 -9 -25 -6 -27 -8 -12
-14 9 -5 24 -6 32 -2 22 8 18 35 -7 46 l-23 9 23 0 c13 1 20 5 17 11 -8 13
-42 13 -50 0z"/>
<path d="M6261 328 c2 -31 3 -35 6 -15 3 16 11 31 19 34 21 8 17 23 -6 23 -17
0 -20 -6 -19 -42z"/>
<path d="M6312 333 c3 -35 6 -38 36 -40 31 -1 32 0 32 38 0 44 -17 54 -22 12
-4 -39 -28 -42 -28 -4 0 17 -5 31 -11 31 -6 0 -9 -16 -7 -37z"/>
<path d="M6400 315 c0 -30 5 -55 10 -55 6 0 10 6 10 13 0 7 10 17 22 22 44 19
30 75 -18 75 -22 0 -24 -4 -24 -55z m48 12 c2 -10 -3 -17 -12 -17 -10 0 -16 9
-16 21 0 24 23 21 28 -4z"/>
<path d="M6491 311 c1 -32 4 -48 7 -36 4 11 16 20 27 20 16 0 20 7 20 35 0 31
-3 35 -27 36 -27 1 -28 0 -27 -55z m45 28 c10 -17 -13 -36 -27 -22 -12 12 -4
33 11 33 5 0 12 -5 16 -11z"/>
<path d="M6577 364 c-4 -4 -7 -20 -7 -36 0 -31 20 -45 48 -33 15 7 14 9 -8 15
-25 8 -25 8 -2 9 18 1 23 6 20 24 -3 22 -36 36 -51 21z"/>
<path d="M6650 328 c0 -21 5 -38 10 -38 6 0 10 14 10 31 0 38 24 35 28 -4 4
-30 22 -38 22 -9 0 44 -12 61 -41 60 -27 -1 -29 -4 -29 -40z"/>
<path d="M7470 330 c0 -22 5 -40 10 -40 6 0 10 11 10 25 0 14 7 28 15 31 24 9
17 24 -10 24 -22 0 -25 -4 -25 -40z"/>
<path d="M7532 333 c3 -35 6 -38 36 -40 31 -1 32 0 32 38 0 44 -17 54 -22 12
-4 -39 -28 -42 -28 -4 0 17 -5 31 -11 31 -6 0 -9 -16 -7 -37z"/>
<path d="M7620 315 c0 -30 5 -55 10 -55 6 0 10 7 10 15 0 8 7 15 15 15 8 0 19
9 25 20 15 28 -4 60 -35 60 -24 0 -25 -3 -25 -55z m46 24 c10 -17 -13 -36 -27
-22 -12 12 -4 33 11 33 5 0 12 -5 16 -11z"/>
<path d="M7700 314 c0 -30 5 -54 10 -54 6 0 10 8 10 18 0 13 7 18 23 18 19 -1
22 4 22 34 0 32 -2 35 -32 37 l-33 1 0 -54z m50 16 c0 -11 -4 -20 -9 -20 -14
0 -23 18 -16 30 10 17 25 11 25 -10z"/>
<path d="M7797 363 c-4 -3 -7 -19 -7 -35 0 -31 20 -45 48 -32 14 6 12 8 -13
14 l-30 8 28 1 c28 1 32 7 21 35 -6 16 -35 22 -47 9z"/>
<path d="M7870 328 c0 -21 5 -38 10 -38 6 0 10 14 10 31 0 39 22 34 31 -7 6
-26 7 -24 8 13 1 40 0 42 -29 41 -28 -1 -30 -4 -30 -40z"/>
<path d="M8465 361 c-3 -7 3 -11 17 -12 l23 0 -23 -11 c-31 -15 -24 -43 11
-43 26 -1 28 2 25 35 -2 27 -8 36 -25 38 -11 2 -24 -2 -28 -7z m35 -41 c0 -5
-4 -10 -10 -10 -5 0 -10 5 -10 10 0 6 5 10 10 10 6 0 10 -4 10 -10z"/>
<path d="M8627 364 c-4 -4 -7 -20 -7 -36 0 -31 20 -45 48 -33 15 7 14 9 -8 15
-25 8 -25 8 -2 9 18 1 23 6 20 24 -3 22 -36 36 -51 21z"/>
<path d="M8700 330 c0 -22 5 -40 10 -40 6 0 10 13 10 29 0 39 27 49 40 15 14
-35 12 -61 -2 -68 -7 -3 -4 -5 6 -3 13 1 25 18 37 55 10 28 14 52 9 52 -4 0
-13 -12 -18 -27 l-10 -28 -7 28 c-6 23 -13 27 -41 27 -33 0 -34 -1 -34 -40z"/>
<path d="M9780 355 c-25 -30 9 -76 46 -60 17 7 15 9 -11 15 l-30 8 28 1 c28 1
35 19 15 39 -16 16 -33 15 -48 -3z m37 -11 c-3 -3 -12 -4 -19 -1 -8 3 -5 6 6
6 11 1 17 -2 13 -5z"/>
<path d="M9854 354 c3 -9 9 -27 12 -40 9 -34 21 -30 39 12 18 43 18 44 6 44
-5 0 -14 -12 -19 -27 l-10 -28 -7 28 c-4 15 -12 27 -17 27 -6 0 -7 -7 -4 -16z"/>
<path d="M9935 361 c-3 -6 2 -11 12 -11 12 0 19 -8 20 -20 1 -11 -2 -20 -8
-20 -5 0 -9 5 -9 10 0 6 -5 10 -11 10 -6 0 -9 -8 -7 -17 2 -12 13 -19 34 -20
30 -1 30 0 25 35 -5 28 -12 38 -28 40 -11 2 -24 -2 -28 -7z"/>
<path d="M10073 363 c-22 -8 -16 -61 7 -68 39 -12 66 35 38 63 -13 13 -24 14
-45 5z m37 -33 c0 -11 -7 -20 -15 -20 -8 0 -15 9 -15 20 0 11 7 20 15 20 8 0
15 -9 15 -20z"/>
<path d="M10150 330 c0 -22 5 -40 10 -40 6 0 10 14 10 30 0 17 5 30 10 30 6 0
10 5 10 10 0 6 -9 10 -20 10 -17 0 -20 -7 -20 -40z"/>
<path d="M10770 330 c0 -22 5 -40 10 -40 6 0 10 18 10 40 0 22 -4 40 -10 40
-5 0 -10 -18 -10 -40z"/>
<path d="M10814 333 c15 -45 31 -52 40 -19 3 13 9 31 12 40 3 9 2 16 -4 16 -5
0 -13 -12 -17 -27 l-7 -28 -10 28 c-5 15 -14 27 -18 27 -5 0 -3 -17 4 -37z"/>
<path d="M10890 355 c-25 -30 9 -76 46 -60 17 7 15 9 -11 15 l-30 8 28 1 c28
1 35 19 15 39 -16 16 -33 15 -48 -3z m37 -11 c-3 -3 -12 -4 -19 -1 -8 3 -5 6
6 6 11 1 17 -2 13 -5z"/>
<path d="M10966 355 c-3 -9 5 -20 22 -29 l27 -15 -28 -1 c-16 0 -26 -4 -22
-10 9 -15 52 -12 58 4 6 15 -6 29 -33 39 -10 3 -7 6 8 6 13 1 20 5 17 11 -9
15 -42 12 -49 -5z"/>
<path d="M6730 330 c0 -5 9 -10 20 -10 11 0 20 5 20 10 0 6 -9 10 -20 10 -11
0 -20 -4 -20 -10z"/>
<path d="M7950 330 c0 -5 9 -10 20 -10 11 0 20 5 20 10 0 6 -9 10 -20 10 -11
0 -20 -4 -20 -10z"/>
<path d="M8830 330 c0 -5 9 -10 20 -10 11 0 20 5 20 10 0 6 -9 10 -20 10 -11
0 -20 -4 -20 -10z"/>
<path d="M10200 330 c0 -5 9 -10 20 -10 11 0 20 5 20 10 0 6 -9 10 -20 10 -11
0 -20 -4 -20 -10z"/>
<path d="M2091 168 c1 -29 4 -43 6 -31 3 15 13 23 31 25 21 2 27 8 27 28 0 21
-5 26 -32 28 l-33 3 1 -53z m49 22 c0 -5 -9 -10 -20 -10 -11 0 -20 5 -20 10 0
6 9 10 20 10 11 0 20 -4 20 -10z"/>
<path d="M2180 170 c0 -27 5 -50 10 -50 6 0 10 23 10 50 0 28 -4 50 -10 50 -5
0 -10 -22 -10 -50z"/>
<path d="M3010 170 c0 -27 5 -50 10 -50 6 0 10 9 10 20 0 13 7 20 19 20 24 0
43 23 35 44 -4 10 -18 16 -40 16 l-34 0 0 -50z m60 20 c0 -5 -9 -10 -20 -10
-11 0 -20 5 -20 10 0 6 9 10 20 10 11 0 20 -4 20 -10z"/>
<path d="M3113 170 c0 -30 2 -43 4 -28 2 16 2 40 0 56 -2 15 -4 2 -4 -28z"/>
<path d="M4070 171 c0 -28 5 -51 10 -51 6 0 10 9 10 19 0 13 8 21 23 23 16 2
22 10 22 28 0 21 -5 26 -32 28 l-33 3 0 -50z m50 19 c0 -5 -7 -10 -15 -10 -8
0 -15 5 -15 10 0 6 7 10 15 10 8 0 15 -4 15 -10z"/>
<path d="M4160 170 c0 -27 5 -50 10 -50 6 0 10 23 10 50 0 28 -4 50 -10 50 -5
0 -10 -22 -10 -50z"/>
<path d="M4990 171 c0 -28 5 -51 10 -51 6 0 10 9 10 19 0 14 8 21 28 23 21 2
27 8 27 28 0 22 -5 25 -37 28 l-38 3 0 -50z m60 19 c0 -5 -9 -10 -20 -10 -11
0 -20 5 -20 10 0 6 9 10 20 10 11 0 20 -4 20 -10z"/>
<path d="M5090 170 c0 -27 5 -50 10 -50 6 0 10 23 10 50 0 28 -4 50 -10 50 -5
0 -10 -22 -10 -50z"/>
<path d="M6560 170 c0 -27 5 -50 10 -50 6 0 10 23 10 50 0 28 -4 50 -10 50 -5
0 -10 -22 -10 -50z"/>
<path d="M7620 171 c0 -49 0 -49 33 -48 30 2 32 5 32 37 0 30 -3 35 -22 34
-13 0 -23 5 -23 13 0 7 -4 13 -10 13 -5 0 -10 -22 -10 -49z m50 -11 c0 -21
-15 -27 -25 -10 -7 12 2 30 16 30 5 0 9 -9 9 -20z"/>
<path d="M7832 208 c-12 -15 -2 -80 14 -85 7 -2 10 14 9 42 -2 52 -7 61 -23
43z"/>
<path d="M8455 178 c8 -51 22 -69 35 -48 5 8 10 23 10 33 0 29 17 19 24 -14 8
-43 28 -32 42 25 9 35 9 46 1 43 -7 -2 -13 -13 -15 -25 -2 -12 -7 -22 -12 -22
-5 0 -10 10 -12 22 -4 31 -26 34 -34 4 -8 -33 -24 -34 -24 -1 0 14 -5 25 -11
25 -7 0 -8 -14 -4 -42z"/>
<path d="M8660 170 c0 -27 5 -50 10 -50 6 0 10 23 10 50 0 28 -4 50 -10 50 -5
0 -10 -22 -10 -50z"/>
<path d="M8700 170 c0 -27 5 -50 10 -50 6 0 10 7 10 15 0 20 16 19 24 -1 4 -9
9 -14 12 -11 3 3 0 15 -6 27 -9 16 -9 25 1 36 14 17 -2 19 -19 2 -9 -9 -12 -7
-12 10 0 12 -4 22 -10 22 -5 0 -10 -22 -10 -50z"/>
<path d="M9770 171 c0 -28 5 -51 10 -51 6 0 10 9 10 19 0 14 8 21 28 23 21 2
27 8 27 28 0 22 -5 25 -37 28 l-38 3 0 -50z m60 19 c0 -5 -9 -10 -20 -10 -11
0 -20 5 -20 10 0 6 9 10 20 10 11 0 20 -4 20 -10z"/>
<path d="M9913 208 c-13 -17 -4 -88 11 -88 8 0 12 15 11 45 -2 51 -8 61 -22
43z"/>
<path d="M10030 170 c0 -52 16 -70 22 -23 4 39 28 42 28 4 0 -17 5 -31 11 -31
6 0 9 16 7 38 -3 31 -7 37 -25 36 -13 0 -23 5 -23 13 0 7 -4 13 -10 13 -5 0
-10 -22 -10 -50z"/>
<path d="M10560 171 c0 -28 5 -51 10 -51 6 0 10 9 10 19 0 13 8 21 23 23 16 2
22 10 22 28 0 21 -5 26 -32 28 l-33 3 0 -50z m50 19 c0 -5 -7 -10 -15 -10 -8
0 -15 5 -15 10 0 6 7 10 15 10 8 0 15 -4 15 -10z"/>
<path d="M10650 170 c0 -27 5 -50 10 -50 6 0 10 23 10 50 0 28 -4 50 -10 50
-5 0 -10 -22 -10 -50z"/>
<path d="M2220 180 c-14 -26 3 -60 30 -60 31 0 33 18 3 23 l-28 4 28 2 c28 1
35 19 15 39 -18 18 -36 15 -48 -8z m37 -6 c-3 -3 -12 -4 -19 -1 -8 3 -5 6 6 6
11 1 17 -2 13 -5z"/>
<path d="M2300 158 c0 -21 5 -38 10 -38 6 0 10 14 10 31 0 39 22 34 31 -7 6
-26 7 -24 8 13 1 40 0 42 -29 41 -28 -1 -30 -4 -30 -40z"/>
<path d="M2391 163 c-1 -41 0 -43 29 -43 28 0 30 2 30 40 0 22 -4 40 -10 40
-5 0 -10 -14 -10 -31 0 -39 -22 -34 -31 7 -6 25 -7 24 -8 -13z"/>
<path d="M2470 160 c0 -22 5 -40 10 -40 6 0 10 14 10 30 0 17 5 30 10 30 6 0
10 -13 10 -30 0 -37 18 -40 22 -3 4 39 28 42 28 4 0 -17 5 -31 10 -31 12 0 13
50 2 66 -4 5 -28 11 -54 12 l-48 2 0 -40z"/>
<path d="M3152 188 c-28 -28 0 -78 35 -63 16 7 15 9 -7 15 l-25 8 28 1 c30 1
32 4 17 32 -12 22 -30 25 -48 7z m35 -14 c-3 -3 -12 -4 -19 -1 -8 3 -5 6 6 6
11 1 17 -2 13 -5z"/>
<path d="M3220 159 c0 -44 17 -54 22 -12 4 39 28 42 28 4 0 -17 5 -31 11 -31
6 0 9 16 7 38 -3 34 -6 37 -35 39 -32 1 -33 0 -33 -38z"/>
<path d="M3312 163 c3 -35 6 -38 36 -40 31 -1 32 0 32 38 0 44 -17 54 -22 12
-4 -39 -28 -42 -28 -4 0 17 -5 31 -11 31 -6 0 -9 -16 -7 -37z"/>
<path d="M3401 156 c1 -37 2 -38 8 -12 9 41 31 46 31 7 0 -17 5 -31 10 -31 6
0 10 14 10 30 0 17 5 30 10 30 6 0 10 -13 10 -30 0 -16 5 -30 11 -30 6 0 9 16
7 38 -3 37 -3 37 -50 38 l-48 1 1 -41z"/>
<path d="M4207 194 c-4 -4 -7 -20 -7 -36 0 -31 20 -45 48 -33 15 7 14 9 -8 15
-25 8 -25 8 -2 9 18 1 23 6 20 24 -3 22 -36 36 -51 21z"/>
<path d="M4280 159 c0 -22 5 -39 10 -39 6 0 10 14 10 30 0 20 5 30 15 30 10 0
15 -10 15 -30 0 -16 5 -30 10 -30 12 0 13 49 2 66 -4 7 -19 12 -34 12 -26 0
-28 -4 -28 -39z"/>
<path d="M4372 163 c3 -33 7 -38 31 -41 26 -3 27 -1 27 37 0 23 -4 41 -10 41
-5 0 -10 -13 -10 -30 0 -16 -4 -30 -10 -30 -5 0 -10 14 -10 30 0 17 -5 30 -11
30 -6 0 -9 -16 -7 -37z"/>
<path d="M4450 159 c0 -22 5 -39 10 -39 6 0 10 14 10 31 0 39 23 34 31 -7 l6
-29 4 29 c6 41 29 46 29 7 0 -17 5 -31 11 -31 6 0 9 16 7 38 l-3 37 -52 1 -53
2 0 -39z"/>
<path d="M5130 185 c-25 -30 9 -76 46 -60 17 7 15 9 -11 15 l-30 8 28 1 c28 1
35 19 15 39 -16 16 -33 15 -48 -3z m37 -11 c-3 -3 -12 -4 -19 -1 -8 3 -5 6 6
6 11 1 17 -2 13 -5z"/>
<path d="M5210 161 c0 -23 5 -41 10 -41 6 0 10 14 10 30 0 17 5 30 10 30 6 0
10 -13 10 -30 0 -16 5 -30 11 -30 6 0 9 16 7 38 -3 32 -7 37 -30 40 -27 3 -28
1 -28 -37z"/>
<path d="M5290 173 c0 -39 11 -51 43 -51 25 0 27 4 27 39 0 22 -4 39 -10 39
-5 0 -10 -13 -10 -30 0 -20 -5 -30 -15 -30 -10 0 -15 10 -15 30 0 17 -4 30
-10 30 -5 0 -10 -12 -10 -27z"/>
<path d="M5380 159 c0 -21 5 -39 10 -39 6 0 10 14 10 30 0 17 5 30 10 30 6 0
10 -13 10 -30 0 -16 5 -30 10 -30 6 0 10 14 10 31 0 39 22 34 31 -7 6 -26 7
-25 8 12 l1 41 -50 1 -50 1 0 -40z"/>
<path d="M6250 145 c0 -30 5 -55 10 -55 6 0 10 6 10 13 0 7 10 17 22 22 44 19
30 75 -18 75 -22 0 -24 -4 -24 -55z m48 12 c2 -10 -3 -17 -12 -17 -10 0 -16 9
-16 21 0 24 23 21 28 -4z"/>
<path d="M6330 173 c0 -39 11 -51 43 -51 25 0 27 4 27 39 0 22 -4 39 -10 39
-5 0 -10 -13 -10 -30 0 -20 -5 -30 -15 -30 -10 0 -15 10 -15 30 0 17 -4 30
-10 30 -5 0 -10 -12 -10 -27z"/>
<path d="M6420 191 c0 -5 6 -11 13 -14 10 -4 10 -7 0 -18 -22 -23 -15 -39 17
-39 17 0 30 5 30 10 0 6 -10 10 -22 10 -20 0 -20 1 -5 18 24 26 21 42 -8 42
-14 0 -25 -4 -25 -9z"/>
<path d="M6490 190 c0 -5 7 -10 17 -10 15 0 15 -1 0 -18 -25 -28 -21 -42 13
-42 17 0 30 5 30 10 0 6 -7 10 -15 10 -8 0 -15 4 -15 9 0 5 7 14 15 21 23 19
18 30 -15 30 -16 0 -30 -4 -30 -10z"/>
<path d="M6607 194 c-4 -4 -7 -20 -7 -36 0 -31 20 -45 48 -33 15 7 14 9 -8 15
-25 8 -25 8 -2 9 18 1 23 6 20 24 -3 22 -36 36 -51 21z"/>
<path d="M7495 191 c-3 -7 3 -11 17 -11 22 -1 22 -2 -5 -16 -36 -19 -30 -39
12 -41 31 -1 32 0 29 35 -2 29 -8 38 -25 40 -11 2 -24 -2 -28 -7z m35 -41 c0
-5 -7 -10 -16 -10 -8 0 -12 5 -9 10 3 6 10 10 16 10 5 0 9 -4 9 -10z"/>
<path d="M7570 160 c0 -22 5 -40 10 -40 6 0 10 14 10 30 0 17 5 30 10 30 6 0
10 5 10 10 0 6 -9 10 -20 10 -17 0 -20 -7 -20 -40z"/>
<path d="M7717 193 c-4 -3 -7 -19 -7 -35 0 -31 20 -45 48 -32 14 6 12 8 -13
14 l-30 8 28 1 c28 1 32 7 21 35 -6 16 -35 22 -47 9z"/>
<path d="M7790 160 c0 -22 5 -40 10 -40 6 0 10 18 10 40 0 22 -4 40 -10 40 -5
0 -10 -18 -10 -40z"/>
<path d="M8585 191 c-3 -7 3 -11 17 -12 l23 0 -23 -11 c-31 -15 -24 -43 11
-43 26 -1 28 2 25 35 -2 27 -8 36 -25 38 -11 2 -24 -2 -28 -7z m35 -41 c0 -5
-4 -10 -10 -10 -5 0 -10 5 -10 10 0 6 5 10 10 10 6 0 10 -4 10 -10z"/>
<path d="M9870 160 c0 -22 5 -40 10 -40 6 0 10 18 10 40 0 22 -4 40 -10 40 -5
0 -10 -18 -10 -40z"/>
<path d="M9960 185 c-15 -18 -10 -45 12 -59 14 -8 22 -7 35 7 17 18 17 18 -9
12 -24 -6 -28 -4 -28 15 0 19 4 21 27 15 23 -5 25 -4 14 9 -17 20 -35 20 -51
1z"/>
<path d="M10697 194 c-4 -4 -7 -20 -7 -36 0 -31 20 -45 48 -33 15 7 14 9 -8
15 -25 8 -25 8 -2 9 18 1 23 6 20 24 -3 22 -36 36 -51 21z"/>
<path d="M10770 158 c0 -21 5 -38 10 -38 6 0 10 14 10 31 0 38 24 35 28 -4 4
-30 22 -38 22 -9 0 44 -12 61 -41 60 -27 -1 -29 -4 -29 -40z"/>
<path d="M10862 163 c3 -33 7 -38 31 -41 26 -3 27 -1 27 37 0 23 -4 41 -10 41
-5 0 -10 -13 -10 -30 0 -16 -4 -30 -10 -30 -5 0 -10 14 -10 30 0 17 -5 30 -11
30 -6 0 -9 -16 -7 -37z"/>
<path d="M10940 159 c0 -22 5 -39 10 -39 6 0 10 14 10 30 0 17 5 30 10 30 6 0
10 -13 10 -30 0 -37 18 -40 22 -3 4 39 28 42 28 4 0 -17 5 -31 11 -31 6 0 9
16 7 38 l-3 37 -52 1 -53 1 0 -38z"/>
</g>
</svg>
